<?xml version="1.0" encoding="UTF-8" standalone="no"?>
<!-- Created with Inkscape (http://www.inkscape.org/) -->

<svg
   xmlns:dc="http://purl.org/dc/elements/1.1/"
   xmlns:cc="http://creativecommons.org/ns#"
   xmlns:rdf="http://www.w3.org/1999/02/22-rdf-syntax-ns#"
   xmlns:svg="http://www.w3.org/2000/svg"
   xmlns="http://www.w3.org/2000/svg"
   xmlns:sodipodi="http://sodipodi.sourceforge.net/DTD/sodipodi-0.dtd"
   xmlns:inkscape="http://www.inkscape.org/namespaces/inkscape"
   width="157.89644"
   height="99.304367"
   id="svg3968"
   version="1.1"
   inkscape:version="0.91 r13725"
   sodipodi:docname="logo.svg">
  <defs
     id="defs3970" />
  <sodipodi:namedview
     id="base"
     pagecolor="#ffffff"
     bordercolor="#666666"
     borderopacity="1.0"
     inkscape:pageopacity="0.0"
     inkscape:pageshadow="2"
     inkscape:zoom="2.8"
     inkscape:cx="68.130747"
     inkscape:cy="-20.212814"
     inkscape:document-units="px"
     inkscape:current-layer="layer1"
     showgrid="false"
     fit-margin-top="0"
     fit-margin-left="0"
     fit-margin-right="0"
     fit-margin-bottom="0"
     inkscape:window-width="1920"
     inkscape:window-height="1020"
     inkscape:window-x="0"
     inkscape:window-y="31"
     inkscape:window-maximized="1" />
  <metadata
     id="metadata3973">
    <rdf:RDF>
      <cc:Work
         rdf:about="">
        <dc:format>image/svg+xml</dc:format>
        <dc:type
           rdf:resource="http://purl.org/dc/dcmitype/StillImage" />
        <dc:title />
      </cc:Work>
    </rdf:RDF>
  </metadata>
  <g
     inkscape:label="Layer 1"
     inkscape:groupmode="layer"
     id="layer1"
     transform="translate(-343.47315,-419.55184)">
    <g
       transform="translate(-592.42685,-96.943799)"
       id="g877">
      <path
         style="fill:#5bba47"
         inkscape:connector-curvature="0"
         d="m 1069.4,571.7 0.8,22.3 -11.9,0 c 0,0 -1.9,-6.2 -6.1,-9.2 -4.2,-2.9 -15,-4.8 -17.2,-3.4 -2.2,1.5 -11.2,12.5 -11.2,12.5 l -16.6,0 -0.9,-25.8 63.1,3.6 z"
         id="path879" />
      <g
         id="g881">
        <path
           style="fill:none;stroke:#010101;stroke-width:11.33860016;stroke-miterlimit:10"
           inkscape:connector-curvature="0"
           stroke-miterlimit="10"
           d="M 998.5,587.8"
           id="path883" />
        <circle
           style="fill:#010101"
           cx="992.20001"
           cy="544.79999"
           r="1.7"
           id="circle885" />
        <circle
           style="fill:#010101"
           cx="1065.1"
           cy="542.29999"
           r="1.3"
           id="circle887" />
        <path
           style="fill:none"
           inkscape:connector-curvature="0"
           d="m 1055.3,594.6 c -0.1,-0.5 -0.2,-1 -0.4,-1.5 -1.8,-6.1 -7.5,-10.6 -14.2,-10.6 -6.7,0 -12.3,4.4 -14.2,10.5 -0.1,0.3 -0.2,0.6 -0.2,0.9 0,0.2 -0.1,0.4 -0.1,0.6 -0.1,0.5 -0.2,1 -0.2,1.5 0,0.3 0,0.6 -0.1,0.9 0,0.2 0,0.3 0,0.5 0,8.2 6.7,14.8 14.8,14.8 8.2,0 14.8,-6.7 14.8,-14.8 0,-0.4 0,-0.8 -0.1,-1.2 0.1,-0.6 0,-1.1 -0.1,-1.6 z"
           id="path889" />
        <circle
           style="fill:#010101"
           cx="1040.9"
           cy="596.70001"
           r="2.7"
           id="circle891" />
        <path
           style="fill:none"
           inkscape:connector-curvature="0"
           d="m 1048.1,571.2 -16.9,-1.1 -10.3,-0.7 -3.3,-0.2 -8.9,-0.6 -0.5,0 0,2.7 0,21.6 14.6,0.1 c 2,-8.1 9.2,-14.1 17.9,-14.1 8.7,0 16,6.1 17.9,14.2 l 1.6,0 9.1,0 c 0,0 0,0 0,0 l 0,-20.6 -7,-0.4 -2.4,-0.2 -11.8,-0.7 z"
           id="path893" />
        <path
           style="fill:none"
           inkscape:connector-curvature="0"
           d="m 1064.8,554.6 c -0.4,-2.5 1.7,-4.7 3.4,-5.4 0.5,-0.2 1.1,-0.1 1.6,0.3 0.9,0.8 3.6,2.8 8.8,2.8 0.8,0 1.7,-0.1 2.6,-0.2 3,-2.1 6.8,-6.7 3.8,-12.2 -0.2,-0.3 -0.4,-0.7 -0.6,-1.1 -1.9,-3.4 -5.1,-9.1 -1.9,-13.9 3,-4.6 5.3,-4.1 7.3,-3.1 -0.1,-0.2 -0.2,-0.5 -0.2,-0.7 -0.1,-0.6 0,-1.2 0.2,-1.8 -0.7,-0.1 -1.9,-0.1 -3.3,0.3 -2,0.5 -4.8,1.8 -6.6,5 -2,3.4 -0.7,6.7 0.7,10.2 0.5,1.3 1.1,2.7 1.4,4.1 0.8,3.5 0.4,5.8 -1.1,7.1 -1.5,1.2 -3.7,1.1 -6.5,-0.2 -1.9,-0.9 -2.4,-2.9 -3.1,-5 -1,-3.4 -2,-6.9 -8,-7.1 -0.5,0 -0.9,-0.3 -1.2,-0.7 -0.3,-0.4 -0.3,-0.9 -0.1,-1.4 0.7,-1.7 0.8,-3 0.3,-3.9 -0.5,-1.1 -1.8,-1.9 -4,-2.5 -5.7,-1.6 -10.4,-1.5 -13.9,0.6 -2.8,1.6 -4.3,4.2 -4.7,5.8 -0.8,3.3 -1.8,8 -1.3,10.9 0.6,3 1.7,5.4 3,6.5 0.3,0.2 1.2,0.6 3.2,0.5 1.6,0 2.9,-0.3 3.2,-0.5 0.1,0 0.2,-0.1 0.2,-0.1 0.1,-2 0.8,-4.1 1,-4.7 0.3,-0.8 1.1,-1.2 1.9,-0.9 0.8,0.3 1.2,1.1 0.9,1.9 -0.7,1.9 -1.1,4.4 -0.7,5.3 0.8,0.4 2.4,2.1 5.7,4.1 5.3,3.4 9.4,3.3 10.8,3.2 -1,-0.5 -1.6,-1.1 -1.9,-1.7 -0.1,-0.1 -0.1,-0.3 -0.2,-0.4 0,0 -0.1,-0.1 -0.1,-0.1 -0.4,-0.2 -0.6,-0.6 -0.6,-1 z"
           id="path895" />
        <path
           style="fill:none"
           inkscape:connector-curvature="0"
           d="m 1055.3,594.6 c -0.1,-0.5 -0.2,-1 -0.4,-1.5 -1.8,-6.1 -7.5,-10.6 -14.2,-10.6 -6.7,0 -12.3,4.4 -14.2,10.5 -0.1,0.3 -0.2,0.6 -0.2,0.9 0,0.2 -0.1,0.4 -0.1,0.6 -0.1,0.5 -0.2,1 -0.2,1.5 0,0.3 0,0.6 -0.1,0.9 0,0.2 0,0.3 0,0.5 0,8.2 6.7,14.8 14.8,14.8 8.2,0 14.8,-6.7 14.8,-14.8 0,-0.4 0,-0.8 -0.1,-1.2 0.1,-0.6 0,-1.1 -0.1,-1.6 z"
           id="path897" />
        <path
           style="fill:none"
           inkscape:connector-curvature="0"
           d="m 1035.7,535.4 c -2.1,-0.3 -9.2,-0.5 -16,9.7 -5.5,8.2 -3.1,14.3 0,21.3 l 9.8,0.6 c -0.2,-0.8 0.2,-1.6 1,-1.8 0.8,-0.2 1.6,0.2 1.9,1 0,0.1 0.2,0.5 0.5,1.1 l 14.8,0.9 c 0.6,-0.3 1.3,-0.6 2,-1 0.7,-0.4 1.6,-0.1 2,0.6 0.1,0.2 0.2,0.4 0.2,0.6 l 8.7,0.5 c 0.3,-2.6 0.6,-5.4 0.9,-8.7 -2.6,-0.7 -4.8,-1.9 -6.5,-3.4 -3.4,-2.9 -5.3,-3.8 -5.3,-3.9 -0.2,-0.1 -0.4,-0.2 -0.5,-0.4 -0.2,-0.2 -0.4,-0.5 -0.5,-0.8 -2.2,0.7 -7,1.1 -9.1,-0.7 -1.9,-1.6 -3.3,-4.5 -4,-8.2 -0.7,-1.9 -0.4,-4.7 0.1,-7.4 z"
           id="path899" />
        <path
           style="fill:#010101"
           inkscape:connector-curvature="0"
           d="m 1092.9,521.3 c -0.3,-0.3 -0.4,-0.5 -0.5,-0.5 0,-0.1 0.1,-0.3 0.4,-0.7 0.4,-0.6 0.5,-1.3 0.2,-2 -0.6,-1.2 -2.3,-1.6 -3.7,-1.6 -3.7,-0.1 -9.1,1.5 -12.1,6.7 -2.7,4.7 -0.9,9.2 0.5,12.8 0.5,1.3 1,2.5 1.3,3.7 0.6,2.5 0.3,3.8 -0.1,4.1 -0.4,0.3 -1.5,0.3 -3.4,-0.6 -0.6,-0.3 -1,-1.7 -1.4,-3.1 -0.9,-3.3 -2.3,-8 -8.8,-9.1 0.4,-1.7 0.3,-3.2 -0.4,-4.5 -0.9,-1.9 -2.8,-3.2 -5.8,-4.1 -6.5,-1.9 -12,-1.6 -16.2,0.8 -3.6,2.1 -5.5,5.3 -6.1,7.7 -0.1,0.5 -0.3,1.1 -0.4,1.6 -2.7,-0.4 -11.2,-0.7 -19.1,11 -6,8.9 -3.8,16 -0.9,22.7 l -7.8,-0.5 c -0.2,0 -0.4,0 -0.6,0 l -4.5,-15.6 c -0.1,-0.4 -0.3,-0.7 -0.7,-0.9 l -9.7,-5.7 c -0.7,-0.4 -1.6,-0.2 -2,0.5 -0.4,0.7 -0.2,1.6 0.5,2 l 9.2,5.4 4.7,16.4 c -0.1,0.3 -0.1,0.6 -0.1,0.9 l 0,25.2 -9.1,0 4.6,-7 2.3,0 c 0.8,0 1.5,-0.7 1.5,-1.5 0,-0.8 -0.7,-1.5 -1.5,-1.5 l -6.4,0 c -0.8,0 -1.5,0.7 -1.5,1.5 0,0.8 0.7,1.5 1.5,1.5 l 0.5,0 -4.6,7 -5.2,0 -17.8,-35.6 3.6,0 c 1,0 1.8,-0.8 1.8,-1.8 0,-1 -0.8,-1.8 -1.8,-1.8 l -10.7,0 c -1,0 -1.8,0.8 -1.8,1.8 0,1 0.8,1.8 1.8,1.8 l 3.8,0 17.8,35.6 -8,0 c -0.8,-10.4 -9.5,-18.7 -20.1,-18.7 -11.1,0 -20.2,9 -20.2,20.2 0,11.1 9,20.2 20.2,20.2 10.6,0 19.3,-8.3 20.1,-18.7 l 14.5,0 -4.6,7 -2.4,0 c -0.8,0 -1.5,0.7 -1.5,1.5 0,0.8 0.7,1.5 1.5,1.5 l 6.4,0 c 0.8,0 1.5,-0.7 1.5,-1.5 0,-0.8 -0.7,-1.5 -1.5,-1.5 l -0.4,0 4.6,-7 28.1,0 c 0,0.2 0,0.3 0,0.5 0,10.2 8.3,18.4 18.4,18.4 10.2,0 18.4,-8.3 18.4,-18.4 0,-0.4 0,-0.8 0,-1.2 l 10.3,0 0,0 c 1.7,0 3,-1.3 3,-3 l 0,-20.6 c 0,-1.6 -1.2,-2.9 -2.8,-3 l -6.8,-0.4 c 0.3,-2.5 0.6,-5.2 0.9,-8.4 0.8,0.1 1.5,0.2 2.3,0.2 2.4,0 4.8,-0.5 7.2,-1.6 0,0 0,0 0.1,0 1,0.2 2.1,0.3 3.1,0.3 7.2,0 12.4,-4.9 14.3,-7 0.5,-0.5 0.5,-1.3 0.1,-1.8 -0.4,-0.6 -1.1,-0.8 -1.8,-0.5 -0.8,0.3 -1.6,0.6 -2.4,0.8 1.1,-1.6 1.7,-3.1 2,-4.3 0.6,-2.7 0.2,-5.6 -1.1,-8 -0.2,-0.3 -0.4,-0.7 -0.6,-1.1 -1.7,-3 -4.2,-7.5 -2,-10.8 1.2,-1.9 2,-2.3 2.3,-2.4 0.3,-0.1 0.6,0.1 1.3,0.4 0.4,0.2 0.8,0.4 1.3,0.6 1.9,0.6 3.2,0 3.7,-0.9 0.4,-1.2 0.2,-2.5 -0.7,-3.4 z M 956,598.1 c 1,0 1.8,-0.5 2.3,-1.2 l 14.2,0 c -0.8,8.5 -7.9,15.1 -16.5,15.1 -9.1,0 -16.6,-7.4 -16.6,-16.6 0,-9.1 7.4,-16.6 16.6,-16.6 8.6,0 15.8,6.6 16.5,15.1 l -14.2,0 c -0.5,-0.7 -1.3,-1.2 -2.3,-1.2 -1.5,0 -2.7,1.2 -2.7,2.7 0,1.5 1.2,2.7 2.7,2.7 z m 63.6,-53 c 6.9,-10.2 13.9,-10 16,-9.7 -0.5,2.7 -0.7,5.4 -0.3,7.6 0.7,3.7 2.1,6.6 4,8.2 2,1.8 6.9,1.4 9.1,0.7 0.1,0.3 0.3,0.5 0.5,0.8 0.1,0.2 0.3,0.3 0.5,0.4 0,0 2,0.9 5.3,3.9 1.7,1.4 3.9,2.7 6.5,3.4 -0.3,3.3 -0.6,6.1 -0.9,8.7 l -8.7,-0.5 c 0,-0.2 -0.1,-0.4 -0.2,-0.6 -0.4,-0.7 -1.3,-1 -2,-0.6 -0.7,0.4 -1.3,0.7 -2,1 l -14.8,-0.9 c -0.4,-0.6 -0.5,-1 -0.5,-1.1 -0.2,-0.8 -1.1,-1.2 -1.9,-1 -0.8,0.2 -1.2,1.1 -1,1.8 l -9.8,-0.6 c -2.9,-7.1 -5.3,-13.2 0.2,-21.5 z m 21.1,67.1 c -8.2,0 -14.8,-6.7 -14.8,-14.8 0,-0.2 0,-0.3 0,-0.5 0,-0.3 0,-0.6 0.1,-0.9 0,-0.5 0.1,-1 0.2,-1.5 0,-0.2 0.1,-0.4 0.1,-0.6 0.1,-0.3 0.1,-0.6 0.2,-0.9 1.9,-6.1 7.5,-10.5 14.2,-10.5 6.7,0 12.4,4.5 14.2,10.6 0.1,0.5 0.3,1 0.4,1.5 0.1,0.5 0.2,1 0.2,1.5 0,0.4 0.1,0.8 0.1,1.2 0,8.3 -6.7,14.9 -14.9,14.9 z m 28.7,-39.6 0,20.6 c 0,0 0,0 0,0 l -9.1,0 -1.6,0 c -1.9,-8.1 -9.2,-14.2 -17.9,-14.2 -8.7,0 -15.9,6 -17.9,14.1 l -14.6,-0.1 0,-21.6 0,-2.7 0.5,0 8.9,0.6 3.3,0.2 10.3,0.7 16.9,1.1 11.9,0.8 2.4,0.2 6.9,0.3 z m 7,-16 c -1.4,0 -2.7,-0.2 -4.1,-0.7 -0.9,-0.3 -1.7,-0.7 -2.6,-1.1 -0.6,-0.3 -1.3,-0.7 -1.9,-1.2 0.1,-0.4 0.5,-0.9 0.8,-1.2 1.7,1.2 4.9,2.9 9.9,2.9 1.2,0 2.4,-0.1 3.7,-0.3 -0.4,0.3 -0.9,0.5 -1.3,0.7 -1.4,0.6 -2.9,0.9 -4.5,0.9 z m 13,-35.4 c 0,0.3 0.1,0.5 0.2,0.7 -2,-1 -4.3,-1.5 -7.3,3.1 -3.1,4.8 0,10.5 1.9,13.9 0.2,0.4 0.4,0.7 0.6,1.1 2.9,5.5 -0.8,10.1 -3.8,12.2 -0.9,0.1 -1.8,0.2 -2.6,0.2 -5.2,0 -7.9,-2 -8.8,-2.8 -0.4,-0.4 -1,-0.5 -1.6,-0.3 -1.7,0.7 -3.8,2.9 -3.4,5.4 0.1,0.4 0.3,0.7 0.6,1 0,0 0.1,0.1 0.1,0.1 0,0.2 0.1,0.3 0.2,0.4 0.3,0.7 0.9,1.2 1.9,1.7 -1.4,0.2 -5.4,0.2 -10.8,-3.2 -3.2,-2.1 -4.9,-3.7 -5.7,-4.1 -0.4,-0.9 0,-3.4 0.7,-5.3 0.3,-0.8 -0.1,-1.6 -0.9,-1.9 -0.8,-0.3 -1.6,0.1 -1.9,0.9 -0.2,0.6 -0.9,2.6 -1,4.7 -0.1,0 -0.2,0.1 -0.2,0.1 -0.3,0.2 -1.6,0.5 -3.2,0.5 -2,0 -2.9,-0.3 -3.2,-0.5 -1.4,-1.2 -2.4,-3.5 -3,-6.5 -0.6,-2.9 0.4,-7.6 1.3,-10.9 0.4,-1.7 1.9,-4.2 4.7,-5.8 3.5,-2 8.2,-2.2 13.9,-0.6 2.1,0.6 3.4,1.5 4,2.5 0.5,1 0.4,2.2 -0.3,3.9 -0.2,0.4 -0.1,1 0.1,1.4 0.3,0.4 0.7,0.7 1.2,0.7 6.1,0.3 7.1,3.8 8,7.1 0.6,2.1 1.2,4.1 3.1,5 2.9,1.3 5.1,1.4 6.5,0.2 1.5,-1.3 1.9,-3.6 1.1,-7.1 -0.3,-1.4 -0.9,-2.8 -1.4,-4.1 -1.4,-3.5 -2.7,-6.8 -0.7,-10.2 1.9,-3.2 4.6,-4.5 6.6,-5 1.4,-0.4 2.6,-0.4 3.3,-0.3 -0.1,0.6 -0.3,1.2 -0.2,1.8 z"
           id="path901" />
      </g>
    </g>
    <path
       style="fill:#ffffff"
       d="m 117.45508,52.038917 c -1.0657,-0.09457 -1.77129,-0.389416 -2.20101,-0.919747 -0.59779,-0.737746 -0.69786,-0.751176 -1.82433,-0.244846 -1.32172,0.594087 -6.28665,0.675601 -12.80909,0.210299 -3.684973,-0.262881 -3.772334,-0.28955 -4.372164,-1.334695 -0.484193,-0.843657 -0.817837,-1.042788 -1.597043,-0.953172 -0.615847,0.07083 -1.118826,0.419358 -1.342124,0.930001 -0.349604,0.799479 -0.440074,0.812227 -4.285715,0.603875 -5.672776,-0.307343 -5.324764,-0.139574 -6.463451,-3.115881 -3.515983,-9.190094 -2.14134,-15.634496 4.856308,-22.76664 3.301933,-3.365397 6.476396,-5.08207 9.786578,-5.292348 l 2.177708,-0.138338 0.01044,4.589164 c 0.01221,5.365091 0.654962,7.525865 3.047052,10.243425 1.20955,1.374126 1.73737,1.685295 3.47023,2.045822 1.42644,0.296775 2.72374,0.323844 4.29523,0.08962 1.5596,-0.232448 2.32789,-0.217706 2.5,0.04797 0.13666,0.21095 0.89133,0.804011 1.67705,1.317914 0.78571,0.513902 2.55357,1.836659 3.92857,2.93946 1.375,1.1028 3.47335,2.419338 4.663,2.925638 l 2.16299,0.920546 -0.44574,3.993667 c -0.24516,2.196517 -0.45512,4.033846 -0.46657,4.082953 -0.0283,0.121401 -4.82703,-0.0025 -6.76792,-0.174692 z"
       id="path3346"
       inkscape:connector-curvature="0"
       transform="translate(343.47315,419.55184)" />
    <path
       style="fill:#ffffff"
       d="m 125.68917,40.320709 c -3.86559,-1.316725 -10.77271,-5.964785 -10.77271,-7.249367 0,-0.340107 0.24483,-1.558347 0.54407,-2.707201 0.64373,-2.471437 0.45314,-3.333771 -0.8067,-3.649971 -1.29402,-0.324779 -2.04622,0.718587 -2.58797,3.589768 l -0.43658,2.313811 -1.96407,0.245393 c -1.18859,0.148505 -2.5067,0.08281 -3.33843,-0.166378 -1.20402,-0.360733 -1.51817,-0.703856 -2.53446,-2.768238 -0.97363,-1.977733 -1.18243,-2.851646 -1.29915,-5.437477 -0.17426,-3.860803 0.90392,-9.1299 2.34523,-11.461157 1.26206,-2.041342 3.54161,-3.7755151 5.87293,-4.4678412 3.59454,-1.067465 10.45953,-0.4199389 13.46677,1.2702271 2.03207,1.1420881 2.38902,2.0203881 1.80704,4.4463521 -0.58799,2.45102 -0.29433,2.850953 2.47964,3.377024 3.78379,0.717583 5.15029,2.149865 6.60673,6.924765 0.48919,1.603807 1.24023,3.292542 1.66897,3.752744 1.14435,1.228318 3.47527,2.167234 5.40249,2.176174 1.367,0.0063 1.91247,-0.190222 2.84832,-1.02641 1.07845,-0.963591 1.16526,-1.213702 1.27065,-3.660714 0.0987,-2.291375 -0.0525,-3.082107 -1.18519,-6.197889 -2.61799,-7.201703 -2.65598,-9.290142 -0.22744,-12.5033425 1.54116,-2.0391062 4.31314,-3.6265681 6.94215,-3.9756417 l 1.69643,-0.2252476 0,1.0911845 c 0,1.0717998 -0.0219,1.0851379 -1.23271,0.7508153 -1.70296,-0.47021 -3.32041,0.2680874 -4.95351,2.2610781 -3.25831,3.9763309 -3.11936,8.1820429 0.48897,14.8002049 2.81203,5.157641 2.57604,8.244603 -0.90739,11.869499 l -1.90698,1.984435 -2.61919,-0.04102 c -3.2629,-0.0511 -5.36375,-0.595153 -7.47189,-1.934968 -2.01985,-1.283708 -2.81646,-1.303602 -4.23987,-0.105883 -2.38996,2.011024 -2.76424,4.237122 -1.06,6.304659 l 1.09743,1.331371 -1.18672,-0.0091 c -0.65269,-0.005 -2.36578,-0.410754 -3.80686,-0.901625 l 0,1e-5 z m 4.5702,-13.536371 c 0.94873,-1.143155 -0.44473,-2.899205 -1.68219,-2.119908 -1.23655,0.778719 -0.79601,2.638465 0.625,2.638465 0.34475,0 0.82048,-0.233351 1.05719,-0.518557 z"
       id="path3348"
       inkscape:connector-curvature="0"
       transform="translate(343.47315,419.55184)" />
    <path
       style="fill:#ffffff"
       d="m 100.48685,94.828767 c -4.139116,-1.367781 -7.166104,-4.081301 -9.058246,-8.120196 -0.870436,-1.858 -0.976428,-2.493326 -0.976428,-5.85277 0,-3.638857 0.04636,-3.862317 1.347265,-6.494528 4.624634,-9.357311 16.901239,-10.95119 23.982029,-3.1136 2.85077,3.155456 4.21763,7.909967 3.45847,12.030028 -0.88833,4.821148 -3.95909,8.770853 -8.45459,10.874553 -3.09059,1.446258 -7.16014,1.71359 -10.2985,0.676513 z m 6.34573,-12.551793 c 1.26389,-0.994171 1.29334,-2.868513 0.0644,-4.097456 -2.01525,-2.015246 -5.3449,0.01375 -4.63887,2.826801 0.4913,1.957502 2.86357,2.616449 4.57447,1.270655 z"
       id="path3350"
       inkscape:connector-curvature="0"
       transform="translate(343.47315,419.55184)" />
    <path
       style="fill:#ffffff"
       d="M 15.09037,94.536818 C 10.744172,92.987338 7.1154207,89.722831 5.1669797,85.609512 4.0773426,83.309198 4.0236043,82.993454 4.0236043,78.891515 c 0,-4.245898 0.017964,-4.340583 1.3253634,-6.985927 5.0058763,-10.128702 17.9036373,-12.471058 26.0234173,-4.7261 2.346396,2.238083 4.432456,5.951573 4.834184,8.60555 l 0.229755,1.517857 -6.892524,0 c -5.419088,0 -7.013057,-0.107425 -7.45636,-0.502519 -1.038235,-0.925328 -2.956468,-0.854848 -3.956693,0.145376 -0.947283,0.947283 -0.947283,2.981288 0,3.928572 0.86653,0.86653 3.267059,0.975645 3.928572,0.178571 0.367338,-0.442616 1.652738,-0.535714 7.396551,-0.535714 l 6.951947,0 -0.243491,1.517857 c -0.737334,4.596337 -4.712626,9.604197 -9.359435,11.790516 -2.167966,1.020026 -2.820435,1.1516 -6.174144,1.245057 -2.898489,0.08077 -4.15654,-0.04044 -5.540377,-0.533793 z"
       id="path3352"
       inkscape:connector-curvature="0"
       transform="translate(343.47315,419.55184)" />
    <path
       style="fill:#ffffff"
       d="m 135.98789,38.980897 c -2.72228,-1.088121 -3.57143,-1.617448 -3.57143,-2.226282 0,-0.677655 -0.0998,-0.699439 2.6149,0.570909 1.686,0.788978 3.30214,1.206889 5.79571,1.498687 3.86867,0.452714 3.67961,0.92433 -0.37489,0.935155 -1.75402,0.0047 -3.08613,-0.227607 -4.46429,-0.778469 z"
       id="path3354"
       inkscape:connector-curvature="0"
       transform="translate(343.47315,419.55184)" />
  </g>
</svg>
