<?xml version="1.0" encoding="UTF-8" standalone="no"?>
<!-- Created with Inkscape (http://www.inkscape.org/) -->

<svg
   xmlns:dc="http://purl.org/dc/elements/1.1/"
   xmlns:cc="http://creativecommons.org/ns#"
   xmlns:rdf="http://www.w3.org/1999/02/22-rdf-syntax-ns#"
   xmlns:svg="http://www.w3.org/2000/svg"
   xmlns="http://www.w3.org/2000/svg"
   xmlns:sodipodi="http://sodipodi.sourceforge.net/DTD/sodipodi-0.dtd"
   xmlns:inkscape="http://www.inkscape.org/namespaces/inkscape"
   width="157.89644"
   height="99.304367"
   id="svg3968"
   version="1.1"
   inkscape:version="0.91 r13725"
   sodipodi:docname="logo.svg">
  <defs
     id="defs3970" />
  <sodipodi:namedview
     id="base"
     pagecolor="#ffffff"
     bordercolor="#666666"
     borderopacity="1.0"
     inkscape:pageopacity="0.0"
     inkscape:pageshadow="2"
     inkscape:zoom="2.8"
     inkscape:cx="127.23789"
     inkscape:cy="-19.498528"
     inkscape:document-units="px"
     inkscape:current-layer="layer1"
     showgrid="false"
     fit-margin-top="0"
     fit-margin-left="0"
     fit-margin-right="0"
     fit-margin-bottom="0"
     inkscape:window-width="1920"
     inkscape:window-height="1020"
     inkscape:window-x="0"
     inkscape:window-y="31"
     inkscape:window-maximized="1" />
  <metadata
     id="metadata3973">
    <rdf:RDF>
      <cc:Work
         rdf:about="">
        <dc:format>image/svg+xml</dc:format>
        <dc:type
           rdf:resource="http://purl.org/dc/dcmitype/StillImage" />
        <dc:title></dc:title>
      </cc:Work>
    </rdf:RDF>
  </metadata>
  <g
     inkscape:label="Layer 1"
     inkscape:groupmode="layer"
     id="layer1"
     transform="translate(-343.47315,-419.55184)">
    <g
       transform="translate(-592.42685,-96.943799)"
       id="g877">
      <path
         style="fill:#5bba47"
         inkscape:connector-curvature="0"
         d="m 1069.4,571.7 0.8,22.3 -11.9,0 c 0,0 -1.9,-6.2 -6.1,-9.2 -4.2,-2.9 -15,-4.8 -17.2,-3.4 -2.2,1.5 -11.2,12.5 -11.2,12.5 l -16.6,0 -0.9,-25.8 63.1,3.6 z"
         id="path879" />
      <g
         id="g881">
        <path
           style="fill:none;stroke:#010101;stroke-width:11.33860016;stroke-miterlimit:10"
           inkscape:connector-curvature="0"
           stroke-miterlimit="10"
           d="M 998.5,587.8"
           id="path883" />
        <circle
           style="fill:#010101"
           cx="992.20001"
           cy="544.79999"
           r="1.7"
           id="circle885" />
        <circle
           style="fill:#010101"
           cx="1065.1"
           cy="542.29999"
           r="1.3"
           id="circle887" />
        <path
           style="fill:none"
           inkscape:connector-curvature="0"
           d="m 1055.3,594.6 c -0.1,-0.5 -0.2,-1 -0.4,-1.5 -1.8,-6.1 -7.5,-10.6 -14.2,-10.6 -6.7,0 -12.3,4.4 -14.2,10.5 -0.1,0.3 -0.2,0.6 -0.2,0.9 0,0.2 -0.1,0.4 -0.1,0.6 -0.1,0.5 -0.2,1 -0.2,1.5 0,0.3 0,0.6 -0.1,0.9 0,0.2 0,0.3 0,0.5 0,8.2 6.7,14.8 14.8,14.8 8.2,0 14.8,-6.7 14.8,-14.8 0,-0.4 0,-0.8 -0.1,-1.2 0.1,-0.6 0,-1.1 -0.1,-1.6 z"
           id="path889" />
        <circle
           style="fill:#010101"
           cx="1040.9"
           cy="596.70001"
           r="2.7"
           id="circle891" />
        <path
           style="fill:none"
           inkscape:connector-curvature="0"
           d="m 1048.1,571.2 -16.9,-1.1 -10.3,-0.7 -3.3,-0.2 -8.9,-0.6 -0.5,0 0,2.7 0,21.6 14.6,0.1 c 2,-8.1 9.2,-14.1 17.9,-14.1 8.7,0 16,6.1 17.9,14.2 l 1.6,0 9.1,0 c 0,0 0,0 0,0 l 0,-20.6 -7,-0.4 -2.4,-0.2 -11.8,-0.7 z"
           id="path893" />
        <path
           style="fill:none"
           inkscape:connector-curvature="0"
           d="m 1064.8,554.6 c -0.4,-2.5 1.7,-4.7 3.4,-5.4 0.5,-0.2 1.1,-0.1 1.6,0.3 0.9,0.8 3.6,2.8 8.8,2.8 0.8,0 1.7,-0.1 2.6,-0.2 3,-2.1 6.8,-6.7 3.8,-12.2 -0.2,-0.3 -0.4,-0.7 -0.6,-1.1 -1.9,-3.4 -5.1,-9.1 -1.9,-13.9 3,-4.6 5.3,-4.1 7.3,-3.1 -0.1,-0.2 -0.2,-0.5 -0.2,-0.7 -0.1,-0.6 0,-1.2 0.2,-1.8 -0.7,-0.1 -1.9,-0.1 -3.3,0.3 -2,0.5 -4.8,1.8 -6.6,5 -2,3.4 -0.7,6.7 0.7,10.2 0.5,1.3 1.1,2.7 1.4,4.1 0.8,3.5 0.4,5.8 -1.1,7.1 -1.5,1.2 -3.7,1.1 -6.5,-0.2 -1.9,-0.9 -2.4,-2.9 -3.1,-5 -1,-3.4 -2,-6.9 -8,-7.1 -0.5,0 -0.9,-0.3 -1.2,-0.7 -0.3,-0.4 -0.3,-0.9 -0.1,-1.4 0.7,-1.7 0.8,-3 0.3,-3.9 -0.5,-1.1 -1.8,-1.9 -4,-2.5 -5.7,-1.6 -10.4,-1.5 -13.9,0.6 -2.8,1.6 -4.3,4.2 -4.7,5.8 -0.8,3.3 -1.8,8 -1.3,10.9 0.6,3 1.7,5.4 3,6.5 0.3,0.2 1.2,0.6 3.2,0.5 1.6,0 2.9,-0.3 3.2,-0.5 0.1,0 0.2,-0.1 0.2,-0.1 0.1,-2 0.8,-4.1 1,-4.7 0.3,-0.8 1.1,-1.2 1.9,-0.9 0.8,0.3 1.2,1.1 0.9,1.9 -0.7,1.9 -1.1,4.4 -0.7,5.3 0.8,0.4 2.4,2.1 5.7,4.1 5.3,3.4 9.4,3.3 10.8,3.2 -1,-0.5 -1.6,-1.1 -1.9,-1.7 -0.1,-0.1 -0.1,-0.3 -0.2,-0.4 0,0 -0.1,-0.1 -0.1,-0.1 -0.4,-0.2 -0.6,-0.6 -0.6,-1 z"
           id="path895" />
        <path
           style="fill:none"
           inkscape:connector-curvature="0"
           d="m 1055.3,594.6 c -0.1,-0.5 -0.2,-1 -0.4,-1.5 -1.8,-6.1 -7.5,-10.6 -14.2,-10.6 -6.7,0 -12.3,4.4 -14.2,10.5 -0.1,0.3 -0.2,0.6 -0.2,0.9 0,0.2 -0.1,0.4 -0.1,0.6 -0.1,0.5 -0.2,1 -0.2,1.5 0,0.3 0,0.6 -0.1,0.9 0,0.2 0,0.3 0,0.5 0,8.2 6.7,14.8 14.8,14.8 8.2,0 14.8,-6.7 14.8,-14.8 0,-0.4 0,-0.8 -0.1,-1.2 0.1,-0.6 0,-1.1 -0.1,-1.6 z"
           id="path897" />
        <path
           style="fill:none"
           inkscape:connector-curvature="0"
           d="m 1035.7,535.4 c -2.1,-0.3 -9.2,-0.5 -16,9.7 -5.5,8.2 -3.1,14.3 0,21.3 l 9.8,0.6 c -0.2,-0.8 0.2,-1.6 1,-1.8 0.8,-0.2 1.6,0.2 1.9,1 0,0.1 0.2,0.5 0.5,1.1 l 14.8,0.9 c 0.6,-0.3 1.3,-0.6 2,-1 0.7,-0.4 1.6,-0.1 2,0.6 0.1,0.2 0.2,0.4 0.2,0.6 l 8.7,0.5 c 0.3,-2.6 0.6,-5.4 0.9,-8.7 -2.6,-0.7 -4.8,-1.9 -6.5,-3.4 -3.4,-2.9 -5.3,-3.8 -5.3,-3.9 -0.2,-0.1 -0.4,-0.2 -0.5,-0.4 -0.2,-0.2 -0.4,-0.5 -0.5,-0.8 -2.2,0.7 -7,1.1 -9.1,-0.7 -1.9,-1.6 -3.3,-4.5 -4,-8.2 -0.7,-1.9 -0.4,-4.7 0.1,-7.4 z"
           id="path899" />
        <path
           style="fill:#010101"
           inkscape:connector-curvature="0"
           d="m 1092.9,521.3 c -0.3,-0.3 -0.4,-0.5 -0.5,-0.5 0,-0.1 0.1,-0.3 0.4,-0.7 0.4,-0.6 0.5,-1.3 0.2,-2 -0.6,-1.2 -2.3,-1.6 -3.7,-1.6 -3.7,-0.1 -9.1,1.5 -12.1,6.7 -2.7,4.7 -0.9,9.2 0.5,12.8 0.5,1.3 1,2.5 1.3,3.7 0.6,2.5 0.3,3.8 -0.1,4.1 -0.4,0.3 -1.5,0.3 -3.4,-0.6 -0.6,-0.3 -1,-1.7 -1.4,-3.1 -0.9,-3.3 -2.3,-8 -8.8,-9.1 0.4,-1.7 0.3,-3.2 -0.4,-4.5 -0.9,-1.9 -2.8,-3.2 -5.8,-4.1 -6.5,-1.9 -12,-1.6 -16.2,0.8 -3.6,2.1 -5.5,5.3 -6.1,7.7 -0.1,0.5 -0.3,1.1 -0.4,1.6 -2.7,-0.4 -11.2,-0.7 -19.1,11 -6,8.9 -3.8,16 -0.9,22.7 l -7.8,-0.5 c -0.2,0 -0.4,0 -0.6,0 l -4.5,-15.6 c -0.1,-0.4 -0.3,-0.7 -0.7,-0.9 l -9.7,-5.7 c -0.7,-0.4 -1.6,-0.2 -2,0.5 -0.4,0.7 -0.2,1.6 0.5,2 l 9.2,5.4 4.7,16.4 c -0.1,0.3 -0.1,0.6 -0.1,0.9 l 0,25.2 -9.1,0 4.6,-7 2.3,0 c 0.8,0 1.5,-0.7 1.5,-1.5 0,-0.8 -0.7,-1.5 -1.5,-1.5 l -6.4,0 c -0.8,0 -1.5,0.7 -1.5,1.5 0,0.8 0.7,1.5 1.5,1.5 l 0.5,0 -4.6,7 -5.2,0 -17.8,-35.6 3.6,0 c 1,0 1.8,-0.8 1.8,-1.8 0,-1 -0.8,-1.8 -1.8,-1.8 l -10.7,0 c -1,0 -1.8,0.8 -1.8,1.8 0,1 0.8,1.8 1.8,1.8 l 3.8,0 17.8,35.6 -8,0 c -0.8,-10.4 -9.5,-18.7 -20.1,-18.7 -11.1,0 -20.2,9 -20.2,20.2 0,11.1 9,20.2 20.2,20.2 10.6,0 19.3,-8.3 20.1,-18.7 l 14.5,0 -4.6,7 -2.4,0 c -0.8,0 -1.5,0.7 -1.5,1.5 0,0.8 0.7,1.5 1.5,1.5 l 6.4,0 c 0.8,0 1.5,-0.7 1.5,-1.5 0,-0.8 -0.7,-1.5 -1.5,-1.5 l -0.4,0 4.6,-7 28.1,0 c 0,0.2 0,0.3 0,0.5 0,10.2 8.3,18.4 18.4,18.4 10.2,0 18.4,-8.3 18.4,-18.4 0,-0.4 0,-0.8 0,-1.2 l 10.3,0 0,0 c 1.7,0 3,-1.3 3,-3 l 0,-20.6 c 0,-1.6 -1.2,-2.9 -2.8,-3 l -6.8,-0.4 c 0.3,-2.5 0.6,-5.2 0.9,-8.4 0.8,0.1 1.5,0.2 2.3,0.2 2.4,0 4.8,-0.5 7.2,-1.6 0,0 0,0 0.1,0 1,0.2 2.1,0.3 3.1,0.3 7.2,0 12.4,-4.9 14.3,-7 0.5,-0.5 0.5,-1.3 0.1,-1.8 -0.4,-0.6 -1.1,-0.8 -1.8,-0.5 -0.8,0.3 -1.6,0.6 -2.4,0.8 1.1,-1.6 1.7,-3.1 2,-4.3 0.6,-2.7 0.2,-5.6 -1.1,-8 -0.2,-0.3 -0.4,-0.7 -0.6,-1.1 -1.7,-3 -4.2,-7.5 -2,-10.8 1.2,-1.9 2,-2.3 2.3,-2.4 0.3,-0.1 0.6,0.1 1.3,0.4 0.4,0.2 0.8,0.4 1.3,0.6 1.9,0.6 3.2,0 3.7,-0.9 0.4,-1.2 0.2,-2.5 -0.7,-3.4 z M 956,598.1 c 1,0 1.8,-0.5 2.3,-1.2 l 14.2,0 c -0.8,8.5 -7.9,15.1 -16.5,15.1 -9.1,0 -16.6,-7.4 -16.6,-16.6 0,-9.1 7.4,-16.6 16.6,-16.6 8.6,0 15.8,6.6 16.5,15.1 l -14.2,0 c -0.5,-0.7 -1.3,-1.2 -2.3,-1.2 -1.5,0 -2.7,1.2 -2.7,2.7 0,1.5 1.2,2.7 2.7,2.7 z m 63.6,-53 c 6.9,-10.2 13.9,-10 16,-9.7 -0.5,2.7 -0.7,5.4 -0.3,7.6 0.7,3.7 2.1,6.6 4,8.2 2,1.8 6.9,1.4 9.1,0.7 0.1,0.3 0.3,0.5 0.5,0.8 0.1,0.2 0.3,0.3 0.5,0.4 0,0 2,0.9 5.3,3.9 1.7,1.4 3.9,2.7 6.5,3.4 -0.3,3.3 -0.6,6.1 -0.9,8.7 l -8.7,-0.5 c 0,-0.2 -0.1,-0.4 -0.2,-0.6 -0.4,-0.7 -1.3,-1 -2,-0.6 -0.7,0.4 -1.3,0.7 -2,1 l -14.8,-0.9 c -0.4,-0.6 -0.5,-1 -0.5,-1.1 -0.2,-0.8 -1.1,-1.2 -1.9,-1 -0.8,0.2 -1.2,1.1 -1,1.8 l -9.8,-0.6 c -2.9,-7.1 -5.3,-13.2 0.2,-21.5 z m 21.1,67.1 c -8.2,0 -14.8,-6.7 -14.8,-14.8 0,-0.2 0,-0.3 0,-0.5 0,-0.3 0,-0.6 0.1,-0.9 0,-0.5 0.1,-1 0.2,-1.5 0,-0.2 0.1,-0.4 0.1,-0.6 0.1,-0.3 0.1,-0.6 0.2,-0.9 1.9,-6.1 7.5,-10.5 14.2,-10.5 6.7,0 12.4,4.5 14.2,10.6 0.1,0.5 0.3,1 0.4,1.5 0.1,0.5 0.2,1 0.2,1.5 0,0.4 0.1,0.8 0.1,1.2 0,8.3 -6.7,14.9 -14.9,14.9 z m 28.7,-39.6 0,20.6 c 0,0 0,0 0,0 l -9.1,0 -1.6,0 c -1.9,-8.1 -9.2,-14.2 -17.9,-14.2 -8.7,0 -15.9,6 -17.9,14.1 l -14.6,-0.1 0,-21.6 0,-2.7 0.5,0 8.9,0.6 3.3,0.2 10.3,0.7 16.9,1.1 11.9,0.8 2.4,0.2 6.9,0.3 z m 7,-16 c -1.4,0 -2.7,-0.2 -4.1,-0.7 -0.9,-0.3 -1.7,-0.7 -2.6,-1.1 -0.6,-0.3 -1.3,-0.7 -1.9,-1.2 0.1,-0.4 0.5,-0.9 0.8,-1.2 1.7,1.2 4.9,2.9 9.9,2.9 1.2,0 2.4,-0.1 3.7,-0.3 -0.4,0.3 -0.9,0.5 -1.3,0.7 -1.4,0.6 -2.9,0.9 -4.5,0.9 z m 13,-35.4 c 0,0.3 0.1,0.5 0.2,0.7 -2,-1 -4.3,-1.5 -7.3,3.1 -3.1,4.8 0,10.5 1.9,13.9 0.2,0.4 0.4,0.7 0.6,1.1 2.9,5.5 -0.8,10.1 -3.8,12.2 -0.9,0.1 -1.8,0.2 -2.6,0.2 -5.2,0 -7.9,-2 -8.8,-2.8 -0.4,-0.4 -1,-0.5 -1.6,-0.3 -1.7,0.7 -3.8,2.9 -3.4,5.4 0.1,0.4 0.3,0.7 0.6,1 0,0 0.1,0.1 0.1,0.1 0,0.2 0.1,0.3 0.2,0.4 0.3,0.7 0.9,1.2 1.9,1.7 -1.4,0.2 -5.4,0.2 -10.8,-3.2 -3.2,-2.1 -4.9,-3.7 -5.7,-4.1 -0.4,-0.9 0,-3.4 0.7,-5.3 0.3,-0.8 -0.1,-1.6 -0.9,-1.9 -0.8,-0.3 -1.6,0.1 -1.9,0.9 -0.2,0.6 -0.9,2.6 -1,4.7 -0.1,0 -0.2,0.1 -0.2,0.1 -0.3,0.2 -1.6,0.5 -3.2,0.5 -2,0 -2.9,-0.3 -3.2,-0.5 -1.4,-1.2 -2.4,-3.5 -3,-6.5 -0.6,-2.9 0.4,-7.6 1.3,-10.9 0.4,-1.7 1.9,-4.2 4.7,-5.8 3.5,-2 8.2,-2.2 13.9,-0.6 2.1,0.6 3.4,1.5 4,2.5 0.5,1 0.4,2.2 -0.3,3.9 -0.2,0.4 -0.1,1 0.1,1.4 0.3,0.4 0.7,0.7 1.2,0.7 6.1,0.3 7.1,3.8 8,7.1 0.6,2.1 1.2,4.1 3.1,5 2.9,1.3 5.1,1.4 6.5,0.2 1.5,-1.3 1.9,-3.6 1.1,-7.1 -0.3,-1.4 -0.9,-2.8 -1.4,-4.1 -1.4,-3.5 -2.7,-6.8 -0.7,-10.2 1.9,-3.2 4.6,-4.5 6.6,-5 1.4,-0.4 2.6,-0.4 3.3,-0.3 -0.1,0.6 -0.3,1.2 -0.2,1.8 z"
           id="path901" />
      </g>
    </g>
  </g>
</svg>
