<?xml version="1.0" encoding="UTF-8" standalone="no"?>
<!-- Created with Inkscape (http://www.inkscape.org/) -->

<svg
   xmlns:dc="http://purl.org/dc/elements/1.1/"
   xmlns:cc="http://creativecommons.org/ns#"
   xmlns:rdf="http://www.w3.org/1999/02/22-rdf-syntax-ns#"
   xmlns:svg="http://www.w3.org/2000/svg"
   xmlns="http://www.w3.org/2000/svg"
   xmlns:sodipodi="http://sodipodi.sourceforge.net/DTD/sodipodi-0.dtd"
   xmlns:inkscape="http://www.inkscape.org/namespaces/inkscape"
   width="634.12054"
   height="346.04144"
   id="svg2"
   version="1.1"
   inkscape:version="0.48.5 r10040"
   sodipodi:docname="logo.svg"
   inkscape:export-filename="/home2/mathieur/Documents/nantes_cargo_bike_meeting/logo.png"
   inkscape:export-xdpi="90"
   inkscape:export-ydpi="90"
   style="fill:#000000;stroke:#000000;enable-background:new">
  <defs
     id="defs4">
    <inkscape:path-effect
       effect="spiro"
       id="path-effect4487"
       is_visible="true" />
    <inkscape:path-effect
       effect="spiro"
       id="path-effect4471"
       is_visible="true" />
    <inkscape:path-effect
       effect="spiro"
       id="path-effect4424"
       is_visible="true" />
    <inkscape:path-effect
       effect="spiro"
       id="path-effect4025"
       is_visible="true" />
    <inkscape:path-effect
       effect="spiro"
       id="path-effect4017"
       is_visible="true" />
    <inkscape:path-effect
       effect="spiro"
       id="path-effect4013"
       is_visible="true" />
    <inkscape:path-effect
       effect="spiro"
       id="path-effect4009"
       is_visible="true" />
    <inkscape:path-effect
       effect="spiro"
       id="path-effect4005"
       is_visible="true" />
    <inkscape:path-effect
       effect="spiro"
       id="path-effect3998"
       is_visible="true" />
    <inkscape:path-effect
       effect="spiro"
       id="path-effect3990"
       is_visible="true" />
    <inkscape:path-effect
       effect="spiro"
       id="path-effect3986"
       is_visible="true" />
    <inkscape:path-effect
       effect="spiro"
       id="path-effect3978"
       is_visible="true" />
    <inkscape:path-effect
       effect="spiro"
       id="path-effect3794"
       is_visible="true" />
    <inkscape:path-effect
       effect="spiro"
       id="path-effect4025-4"
       is_visible="true" />
  </defs>
  <sodipodi:namedview
     id="base"
     pagecolor="#ffffff"
     bordercolor="#666666"
     borderopacity="1.0"
     inkscape:pageopacity="0.0"
     inkscape:pageshadow="2"
     inkscape:zoom="1.4"
     inkscape:cx="125.81429"
     inkscape:cy="135.55561"
     inkscape:document-units="px"
     inkscape:current-layer="layer1"
     showgrid="false"
     inkscape:snap-bbox="true"
     inkscape:snap-global="true"
     showguides="true"
     inkscape:guide-bbox="true"
     inkscape:snap-object-midpoints="true"
     inkscape:object-nodes="true"
     inkscape:snap-smooth-nodes="true"
     inkscape:window-width="1920"
     inkscape:window-height="1027"
     inkscape:window-x="0"
     inkscape:window-y="31"
     inkscape:window-maximized="1"
     width="744.09px"
     fit-margin-top="0"
     fit-margin-left="0"
     fit-margin-right="0"
     fit-margin-bottom="0">
    <sodipodi:guide
       orientation="1,0"
       position="-180.79329,569.74267"
       id="guide4001" />
  </sodipodi:namedview>
  <metadata
     id="metadata7">
    <rdf:RDF>
      <cc:Work
         rdf:about="">
        <dc:format>image/svg+xml</dc:format>
        <dc:type
           rdf:resource="http://purl.org/dc/dcmitype/StillImage" />
        <dc:title />
      </cc:Work>
    </rdf:RDF>
  </metadata>
  <g
     inkscape:label="Logo"
     inkscape:groupmode="layer"
     id="layer1"
     transform="translate(30.635276,-851.77579)">
    <path
       sodipodi:type="arc"
       id="path2985"
       sodipodi:cx="97.5"
       sodipodi:cy="593.79077"
       sodipodi:rx="48.214287"
       sodipodi:ry="47.857143"
       d="m 145.71429,593.79077 c 0,26.43077 -21.58627,47.85714 -48.21429,47.85714 -26.628015,0 -48.214287,-21.42637 -48.214287,-47.85714 0,-26.43077 21.586272,-47.85714 48.214287,-47.85714 26.62802,0 48.21429,21.42637 48.21429,47.85714 z"
       transform="matrix(0.90668499,0,0,0.86497548,44.899301,524.62279)"
       inkscape:export-filename="/home2/mathieur/Documents/nantes_cargo_bike_meeting/logo.png"
       inkscape:export-xdpi="90"
       inkscape:export-ydpi="90"
       style="fill:#000000;fill-opacity:0;stroke-width:10.85667229;stroke-miterlimit:4;stroke-opacity:1;stroke-dasharray:none" />
    <path
       sodipodi:type="arc"
       id="path2985-5"
       sodipodi:cx="97.5"
       sodipodi:cy="593.79077"
       sodipodi:rx="48.214287"
       sodipodi:ry="47.857143"
       d="m 145.71429,593.79077 c 0,26.43077 -21.58627,47.85714 -48.21429,47.85714 -26.628015,0 -48.214287,-21.42637 -48.214287,-47.85714 0,-26.43077 21.586272,-47.85714 48.214287,-47.85714 26.62802,0 48.21429,21.42637 48.21429,47.85714 z"
       transform="matrix(0.53646265,0,0,0.53594112,403.23029,735.14318)"
       inkscape:export-filename="/home2/mathieur/Documents/nantes_cargo_bike_meeting/logo.png"
       inkscape:export-xdpi="90"
       inkscape:export-ydpi="90"
       style="fill:#000000;fill-opacity:0;stroke-width:17.93075371;stroke-miterlimit:4;stroke-opacity:1;stroke-dasharray:none" />
    <path
       d="M 193.11866,1041.1051 167.17647,971.32762"
       id="path4003"
       inkscape:path-effect="#path-effect4005"
       inkscape:original-d="M 193.11866,1041.1051 C 167.50088,972.13278 167.17647,971.32762 167.17647,971.32762"
       inkscape:connector-curvature="0"
       inkscape:export-filename="/home2/mathieur/Documents/nantes_cargo_bike_meeting/logo.png"
       inkscape:export-xdpi="90"
       inkscape:export-ydpi="90"
       style="fill:none;stroke-width:4.64655161;stroke-linecap:butt;stroke-linejoin:miter;stroke-miterlimit:4;stroke-opacity:1;stroke-dasharray:none" />
    <path
       style="fill:none;stroke-width:3.43375111;stroke-linecap:butt;stroke-linejoin:miter;stroke-miterlimit:4;stroke-opacity:1;stroke-dasharray:none"
       d="m 248.22521,1067.6669 c -7.2945,-9.3285 -14.85172,-18.4516 -22.6597,-27.3548 -6.71375,-7.6555 -13.61288,-15.1484 -20.6893,-22.4699"
       id="path4007"
       inkscape:path-effect="#path-effect4009"
       inkscape:original-d="m 248.22521,1067.6669 c 0,0 0,0 -22.6597,-27.3548 -20.6893,-22.4699 -20.6893,-22.4699 -20.6893,-22.4699"
       inkscape:connector-curvature="0"
       inkscape:export-filename="/home2/mathieur/Documents/nantes_cargo_bike_meeting/logo.png"
       inkscape:export-xdpi="90"
       inkscape:export-ydpi="90" />
    <path
       style="fill:none;stroke-width:4.80725098;stroke-linecap:round;stroke-linejoin:miter;stroke-miterlimit:4;stroke-opacity:1;stroke-dasharray:none"
       d="m 198.53047,1018.8191 18.99677,0"
       id="path4011"
       inkscape:path-effect="#path-effect4013"
       inkscape:original-d="m 198.53047,1018.8191 c 17.80947,-0.9769 18.99677,0 18.99677,0"
       inkscape:connector-curvature="0"
       inkscape:export-filename="/home2/mathieur/Documents/nantes_cargo_bike_meeting/logo.png"
       inkscape:export-xdpi="90"
       inkscape:export-ydpi="90" />
    <path
       style="fill:none;stroke-width:4.80725098;stroke-linecap:round;stroke-linejoin:miter;stroke-miterlimit:4;stroke-opacity:1;stroke-dasharray:none"
       d="m 238.37316,1068.4485 17.73367,0.977"
       id="path4015"
       inkscape:path-effect="#path-effect4017"
       inkscape:original-d="m 238.37316,1068.4485 c 17.73367,0.977 17.73367,0.977 17.73367,0.977"
       inkscape:connector-curvature="0"
       inkscape:export-filename="/home2/mathieur/Documents/nantes_cargo_bike_meeting/logo.png"
       inkscape:export-xdpi="90"
       inkscape:export-ydpi="90" />
    <path
       style="fill:none;stroke-width:6.35930681;stroke-linecap:round;stroke-linejoin:round;stroke-miterlimit:4;stroke-opacity:1;stroke-dasharray:none;marker-mid:none;marker-end:none"
       d="m 156.07473,968.42917 25.48594,3.27966"
       id="path4023"
       inkscape:path-effect="#path-effect4025"
       inkscape:original-d="m 156.07473,968.42917 c 25.18254,2.28247 25.48594,3.27966 25.48594,3.27966"
       inkscape:connector-curvature="0"
       inkscape:export-filename="/home2/mathieur/Documents/nantes_cargo_bike_meeting/logo.png"
       inkscape:export-xdpi="90"
       inkscape:export-ydpi="90" />
    <path
       style="fill:none;stroke-width:6.28865385;stroke-linecap:round;stroke-linejoin:round;stroke-miterlimit:4;stroke-opacity:1;stroke-dasharray:none;marker-mid:none;marker-end:none"
       d="m 250.70195,951.25137 23.501,1.0971"
       id="path4023-0"
       inkscape:path-effect="#path-effect4025-4"
       inkscape:original-d="m 250.70195,951.25137 c 23.14285,0.0643 23.501,1.0971 23.501,1.0971"
       inkscape:connector-curvature="0"
       inkscape:export-filename="/home2/mathieur/Documents/nantes_cargo_bike_meeting/logo.png"
       inkscape:export-xdpi="90"
       inkscape:export-ydpi="90" />
    <path
       sodipodi:type="arc"
       style="fill:#000000;fill-opacity:0;stroke-width:7.07650042;stroke-linecap:round;stroke-linejoin:round;stroke-miterlimit:4;stroke-opacity:1;stroke-dasharray:none"
       id="path4438"
       sodipodi:cx="207.14285"
       sodipodi:cy="816.64789"
       sodipodi:rx="13.571428"
       sodipodi:ry="10"
       d="m 220.71428,816.64789 c 0,5.52285 -6.07613,10 -13.57143,10 -7.49529,0 -13.57143,-4.47715 -13.57143,-10 0,-5.52285 6.07614,-10 13.57143,-10 7.4953,0 13.57143,4.47715 13.57143,10 z"
       transform="matrix(0.76048619,0,0,1.1573472,241.15927,-19.433387)"
       inkscape:export-filename="/home2/mathieur/Documents/nantes_cargo_bike_meeting/logo.png"
       inkscape:export-xdpi="90"
       inkscape:export-ydpi="90" />
    <path
       style="fill:none;stroke-width:9.72850418;stroke-linecap:round;stroke-linejoin:round;stroke-miterlimit:4;stroke-opacity:1;stroke-dasharray:none"
       d="m 374.11536,902.50911 c -6.61312,3.36877 7.28465,-35.31292 -29.05058,-23.6704 -6.75282,2.16374 -65.05953,8.01233 -61.53594,35.82141 1.3469,10.63007 0.57606,20.82072 15.54251,32.77625 9.12058,7.28577 26.25265,24.84084 37.73313,21.69018 17.52758,-4.81023 37.08013,-38.81475 37.08013,-38.81475"
       id="path4524"
       inkscape:connector-curvature="0"
       sodipodi:nodetypes="cssssc"
       inkscape:export-filename="/home2/mathieur/Documents/nantes_cargo_bike_meeting/logo.png"
       inkscape:export-xdpi="90"
       inkscape:export-ydpi="90" />
    <path
       style="fill:none;stroke-width:7.69864845;stroke-linecap:round;stroke-linejoin:round;stroke-miterlimit:4;stroke-opacity:1;stroke-dasharray:none"
       d="m 128.81561,1037.9207 c 122.03074,3.0505 122.91984,1.7378 122.91984,1.7378 0,0 13.78125,-56.44435 14.22581,-85.32286"
       id="path4554"
       inkscape:connector-curvature="0"
       inkscape:export-filename="/home2/mathieur/Documents/nantes_cargo_bike_meeting/logo.png"
       inkscape:export-xdpi="90"
       inkscape:export-ydpi="90" />
    <path
       style="fill:none;stroke-width:7.04297876;stroke-linecap:round;stroke-linejoin:miter;stroke-miterlimit:4;stroke-opacity:1;stroke-dasharray:none"
       d="m 257.45361,1010.6025 c -5.47651,29.0604 28.99724,40.3556 28.99724,40.3556 l 124.26296,3.0184"
       id="path4556"
       inkscape:connector-curvature="0"
       sodipodi:nodetypes="ccc"
       inkscape:export-filename="/home2/mathieur/Documents/nantes_cargo_bike_meeting/logo.png"
       inkscape:export-xdpi="90"
       inkscape:export-ydpi="90" />
    <path
       style="fill:none;stroke-width:5.49400187;stroke-linecap:round;stroke-linejoin:miter;stroke-miterlimit:4;stroke-opacity:1;stroke-dasharray:none"
       d="m 410.71381,1053.9765 c 9.53309,-14.6297 13.08172,-26.3441 18.21713,-34.225 14.16741,-21.7416 17.61563,-20.76449 17.61563,-20.76449 -4.43343,29.30859 8.98884,54.39299 8.98884,54.39299"
       id="path3014"
       inkscape:connector-curvature="0"
       sodipodi:nodetypes="cscc"
       inkscape:export-filename="/home2/mathieur/Documents/nantes_cargo_bike_meeting/logo.png"
       inkscape:export-xdpi="90"
       inkscape:export-ydpi="90" />
    <path
       style="fill:none;stroke-width:6.86750221;stroke-linecap:round;stroke-linejoin:round;stroke-miterlimit:4;stroke-opacity:1;stroke-dasharray:none"
       d="m 390.32648,893.98711 c 2.82013,2.10382 14.63999,-1.13265 27.55684,7.58623 9.15813,6.18172 18.65552,26.28408 25.72899,36.57323 16.89786,24.57985 49.5242,-10.04358 66.42547,-25.64199 11.3181,-10.44565 29.63363,-6.39955 31.41818,-0.42875"
       id="path3786"
       inkscape:connector-curvature="0"
       sodipodi:nodetypes="csssc"
       inkscape:export-filename="/home2/mathieur/Documents/nantes_cargo_bike_meeting/logo.png"
       inkscape:export-xdpi="90"
       inkscape:export-ydpi="90" />
    <path
       style="fill:none;stroke-width:6.56494284;stroke-linecap:round;stroke-linejoin:miter;stroke-miterlimit:4;stroke-opacity:1;stroke-dasharray:none"
       d="m 412.86272,952.79112 c -1.8649,15.29925 22.2956,27.75799 31.74951,27.27581 5.733,-0.2924 10.33961,-0.55519 14.04022,-0.78937 16.42857,-1.03962 15.00118,-1.51542 15.00118,-1.51542 l 13.93772,-5.35281 10.71429,-12.14285"
       id="path3788"
       inkscape:connector-curvature="0"
       sodipodi:nodetypes="cssccc"
       inkscape:export-filename="/home2/mathieur/Documents/nantes_cargo_bike_meeting/logo.png"
       inkscape:export-xdpi="90"
       inkscape:export-ydpi="90" />
    <path
       style="fill:none;stroke-width:6.86750221;stroke-linecap:butt;stroke-linejoin:miter;stroke-miterlimit:4;stroke-opacity:1;stroke-dasharray:none"
       d="m 306.10275,962.78831 c -3.69448,9.91538 -16.81924,11.98407 -18.78511,19.59032 -3.09492,11.97475 11.52923,19.64067 11.69195,27.49997 0.46857,22.6308 -1.04749,31.7528 -1.04749,31.7528"
       id="path3792"
       inkscape:connector-curvature="0"
       inkscape:export-filename="/home2/mathieur/Documents/nantes_cargo_bike_meeting/logo.png"
       inkscape:export-xdpi="90"
       inkscape:export-ydpi="90"
       sodipodi:nodetypes="cssc" />
    <path
       style="fill:none;stroke-width:1.37350047px;stroke-linecap:butt;stroke-linejoin:miter;stroke-opacity:1"
       d="M 295.31764,982.37863 z"
       id="path3794"
       inkscape:connector-curvature="0"
       inkscape:export-filename="/home2/mathieur/Documents/nantes_cargo_bike_meeting/logo.png"
       inkscape:export-xdpi="90"
       inkscape:export-ydpi="90" />
    <path
       style="fill:none;stroke-width:5.36166525;stroke-linecap:butt;stroke-linejoin:miter;stroke-miterlimit:4;stroke-opacity:1;stroke-dasharray:none"
       d="m 403.30042,965.99028 c 14.05707,48.82222 12.3454,41.04822 -9.37988,77.25702"
       id="path3792-9"
       inkscape:connector-curvature="0"
       inkscape:export-filename="/home2/mathieur/Documents/nantes_cargo_bike_meeting/logo.png"
       inkscape:export-xdpi="90"
       inkscape:export-ydpi="90"
       sodipodi:nodetypes="cc" />
    <path
       sodipodi:type="arc"
       style="stroke-width:5;stroke-linecap:round;stroke-linejoin:round;stroke-miterlimit:4;stroke-dasharray:none"
       id="path3825"
       sodipodi:cx="516.78571"
       sodipodi:cy="453.43359"
       sodipodi:rx="6.7857141"
       sodipodi:ry="4.6428571"
       d="m 523.57142,453.43359 c 0,2.56418 -3.03807,4.64286 -6.78571,4.64286 -3.74765,0 -6.78572,-2.07868 -6.78572,-4.64286 0,-2.56418 3.03807,-4.64285 6.78572,-4.64285 3.74764,0 6.78571,2.07867 6.78571,4.64285 z"
       transform="matrix(0.61704921,0,0,0.84168527,82.564893,545.62656)"
       inkscape:export-filename="/home2/mathieur/Documents/nantes_cargo_bike_meeting/logo.png"
       inkscape:export-xdpi="90"
       inkscape:export-ydpi="90" />
    <text
       xml:space="preserve"
       style="font-size:55.90406036px;font-style:normal;font-weight:normal;text-align:center;line-height:137.99999952%;letter-spacing:0px;word-spacing:0px;text-anchor:middle;fill:#000000;fill-opacity:1;stroke:none;font-family:Sans"
       x="283.1619"
       y="1162.1078"
       id="text3063"
       sodipodi:linespacing="138%"
       transform="scale(1.0223695,0.97811993)"><tspan
         sodipodi:role="line"
         x="283.1619"
         y="1162.1078"
         id="tspan3065"><tspan
           x="283.1619"
           y="1162.1078"
           style="font-variant:normal;font-stretch:normal;font-family:Arial;-inkscape-font-specification:Arial"
           id="tspan3067">Nantes Cargo Bike</tspan></tspan><tspan
         sodipodi:role="line"
         x="283.1619"
         y="1202.4958"
         id="tspan3069"
         style="font-size:21.78796005px;line-height:137.99999952%">Promouvoir le vélo cargo dans la métropole nantaise</tspan></text>
    <path
       style="fill:none;stroke:#000000;stroke-width:4.94457722;stroke-linecap:butt;stroke-linejoin:miter;stroke-miterlimit:4;stroke-opacity:1;stroke-dasharray:none"
       d="m 257.33903,1020.6955 165.99222,4.963 0,0 0,0 0,0 0,0"
       id="path3033"
       inkscape:connector-curvature="0" />
    <path
       style="stroke-width:3.57142854;stroke-linecap:round;stroke-linejoin:round;stroke-miterlimit:4;stroke-dasharray:none"
       d="m 373.6,196.82562 c -34.13829,-0.83187 -55.21355,-1.61764 -56.78571,-2.11718 -4.46293,-1.41809 -12.40454,-6.53285 -16.52404,-10.64224 -3.59431,-3.58548 -8.35447,-11.08281 -7.54841,-11.88886 0.17011,-0.17012 7.7486,-0.0875 16.84106,0.18352 l 16.53177,0.49282 -0.39273,5.78036 c -0.216,3.1792 -0.53818,6.94605 -0.71596,8.37078 -0.30238,2.42329 -0.17959,2.61915 1.90325,3.03572 5.12008,1.02401 5.37311,0.85409 5.87473,-3.9452 0.2524,-2.41477 0.4589,-6.27191 0.4589,-8.57143 l 0,-4.18093 3.75,-0.0121 c 7.02131,-0.0227 81.58272,2.18126 87.42882,2.58429 l 5.82167,0.40135 -3.38807,5.47752 c -5.55755,8.98491 -5.40101,8.33829 -2.44137,10.08452 1.41924,0.83737 2.64716,1.42907 2.72872,1.31489 0.0816,-0.11418 2.50605,-4.01434 5.38777,-8.66702 l 5.23946,-8.45943 6.24929,0.24514 c 3.43711,0.13483 6.45744,0.45369 6.71184,0.70858 0.52042,0.52141 -2.40658,6.64707 -7.37146,15.42709 l -3.33095,5.89052 -6.07143,-0.0949 c -3.33929,-0.0522 -30.5,-0.69021 -60.35715,-1.41776 l 0,0 z"
       id="path3805"
       inkscape:connector-curvature="0"
       transform="translate(-30.635276,851.77579)" />
  </g>
</svg>
