<?xml version="1.0" encoding="UTF-8" standalone="no"?>
<!-- Created with Inkscape (http://www.inkscape.org/) -->

<svg
   xmlns:dc="http://purl.org/dc/elements/1.1/"
   xmlns:cc="http://creativecommons.org/ns#"
   xmlns:rdf="http://www.w3.org/1999/02/22-rdf-syntax-ns#"
   xmlns:svg="http://www.w3.org/2000/svg"
   xmlns="http://www.w3.org/2000/svg"
   xmlns:sodipodi="http://sodipodi.sourceforge.net/DTD/sodipodi-0.dtd"
   xmlns:inkscape="http://www.inkscape.org/namespaces/inkscape"
   width="634.12054"
   height="346.04144"
   id="svg2"
   version="1.1"
   inkscape:version="0.48.5 r10040"
   sodipodi:docname="logo.svg"
   inkscape:export-filename="/home2/mathieur/Documents/nantes_cargo_bike_meeting/logo.png"
   inkscape:export-xdpi="90"
   inkscape:export-ydpi="90"
   style="fill:#000000;stroke:#000000;enable-background:new">
  <defs
     id="defs4">
    <inkscape:path-effect
       effect="skeletal"
       id="path-effect3860"
       is_visible="true"
       pattern="m -2.0203051,-5.0507627 0,10 10,-5.00000003 z"
       copytype="single_stretched"
       prop_scale="1"
       scale_y_rel="false"
       spacing="0"
       normal_offset="0"
       tang_offset="0"
       prop_units="false"
       vertical_pattern="false"
       fuse_tolerance="0" />
    <inkscape:perspective
       sodipodi:type="inkscape:persp3d"
       inkscape:vp_x="0 : 173.02072 : 1"
       inkscape:vp_y="0 : 1000 : 0"
       inkscape:vp_z="634.12054 : 173.02072 : 1"
       inkscape:persp3d-origin="317.06027 : 115.34715 : 1"
       id="perspective3842" />
    <inkscape:path-effect
       effect="skeletal"
       id="path-effect3840"
       is_visible="true"
       pattern="M 0,0 0,10 10,5 z"
       copytype="single_stretched"
       prop_scale="1"
       scale_y_rel="false"
       spacing="0"
       normal_offset="0"
       tang_offset="0"
       prop_units="false"
       vertical_pattern="false"
       fuse_tolerance="0" />
    <inkscape:path-effect
       effect="skeletal"
       id="path-effect3836"
       is_visible="true"
       pattern="m -5.6340005,848.74533 0,10 10,-5 z"
       copytype="single_stretched"
       prop_scale="1"
       scale_y_rel="false"
       spacing="0"
       normal_offset="0"
       tang_offset="0"
       prop_units="false"
       vertical_pattern="false"
       fuse_tolerance="0" />
    <inkscape:path-effect
       effect="skeletal"
       id="path-effect3832"
       is_visible="true"
       pattern="M 0,0 0,10 10,5 z"
       copytype="single_stretched"
       prop_scale="1"
       scale_y_rel="false"
       spacing="0"
       normal_offset="0"
       tang_offset="0"
       prop_units="false"
       vertical_pattern="false"
       fuse_tolerance="0" />
    <inkscape:path-effect
       effect="skeletal"
       id="path-effect3824"
       is_visible="true"
       pattern="m 8.8388348,-14.121831 0,10.0000005 10.0000002,-5 z"
       copytype="single_stretched"
       prop_scale="1"
       scale_y_rel="false"
       spacing="0"
       normal_offset="0"
       tang_offset="0"
       prop_units="false"
       vertical_pattern="false"
       fuse_tolerance="0" />
    <inkscape:path-effect
       effect="skeletal"
       id="path-effect3820"
       is_visible="true"
       pattern="m 334.67206,903.30846 0,10 10,-5 z"
       copytype="single_stretched"
       prop_scale="1"
       scale_y_rel="false"
       spacing="0"
       normal_offset="0"
       tang_offset="0"
       prop_units="false"
       vertical_pattern="false"
       fuse_tolerance="0" />
    <inkscape:path-effect
       effect="skeletal"
       id="path-effect3814"
       is_visible="true"
       pattern="M 0,0 0,10 10,5 z"
       copytype="single_stretched"
       prop_scale="1"
       scale_y_rel="false"
       spacing="0"
       normal_offset="0"
       tang_offset="0"
       prop_units="false"
       vertical_pattern="false"
       fuse_tolerance="0" />
    <inkscape:path-effect
       effect="skeletal"
       id="path-effect3040"
       is_visible="true"
       pattern="m 416.17613,53.661676 0,10 10,-5 z"
       copytype="single_stretched"
       prop_scale="1"
       scale_y_rel="false"
       spacing="0"
       normal_offset="0"
       tang_offset="0"
       prop_units="false"
       vertical_pattern="false"
       fuse_tolerance="0" />
    <inkscape:path-effect
       effect="skeletal"
       id="path-effect3032"
       is_visible="true"
       pattern="M 0,0 0,10 10,5 z"
       copytype="single_stretched"
       prop_scale="1"
       scale_y_rel="false"
       spacing="0"
       normal_offset="0"
       tang_offset="0"
       prop_units="false"
       vertical_pattern="false"
       fuse_tolerance="0" />
    <inkscape:path-effect
       effect="spiro"
       id="path-effect3052"
       is_visible="true" />
    <inkscape:path-effect
       effect="spiro"
       id="path-effect4487"
       is_visible="true" />
    <inkscape:path-effect
       effect="spiro"
       id="path-effect4471"
       is_visible="true" />
    <inkscape:path-effect
       effect="spiro"
       id="path-effect4424"
       is_visible="true" />
    <inkscape:path-effect
       effect="spiro"
       id="path-effect4025"
       is_visible="true" />
    <inkscape:path-effect
       effect="spiro"
       id="path-effect4017"
       is_visible="true" />
    <inkscape:path-effect
       effect="spiro"
       id="path-effect4013"
       is_visible="true" />
    <inkscape:path-effect
       effect="spiro"
       id="path-effect4009"
       is_visible="true" />
    <inkscape:path-effect
       effect="spiro"
       id="path-effect4005"
       is_visible="true" />
    <inkscape:path-effect
       effect="spiro"
       id="path-effect3998"
       is_visible="true" />
    <inkscape:path-effect
       effect="spiro"
       id="path-effect3990"
       is_visible="true" />
    <inkscape:path-effect
       effect="spiro"
       id="path-effect3986"
       is_visible="true" />
    <inkscape:path-effect
       effect="spiro"
       id="path-effect3978"
       is_visible="true" />
    <inkscape:path-effect
       effect="spiro"
       id="path-effect3794"
       is_visible="true" />
    <inkscape:path-effect
       effect="spiro"
       id="path-effect4025-4"
       is_visible="true" />
  </defs>
  <sodipodi:namedview
     id="base"
     pagecolor="#ffffff"
     bordercolor="#666666"
     borderopacity="1.0"
     inkscape:pageopacity="0.0"
     inkscape:pageshadow="2"
     inkscape:zoom="1.979899"
     inkscape:cx="475.66073"
     inkscape:cy="85.19467"
     inkscape:document-units="px"
     inkscape:current-layer="layer1"
     showgrid="false"
     inkscape:snap-bbox="true"
     inkscape:snap-global="true"
     showguides="true"
     inkscape:guide-bbox="true"
     inkscape:snap-object-midpoints="true"
     inkscape:object-nodes="true"
     inkscape:snap-smooth-nodes="true"
     inkscape:window-width="1920"
     inkscape:window-height="1025"
     inkscape:window-x="0"
     inkscape:window-y="33"
     inkscape:window-maximized="1"
     width="744.09px"
     fit-margin-top="0"
     fit-margin-left="0"
     fit-margin-right="0"
     fit-margin-bottom="0">
    <sodipodi:guide
       orientation="1,0"
       position="-180.79329,569.74267"
       id="guide4001" />
  </sodipodi:namedview>
  <metadata
     id="metadata7">
    <rdf:RDF>
      <cc:Work
         rdf:about="">
        <dc:format>image/svg+xml</dc:format>
        <dc:type
           rdf:resource="http://purl.org/dc/dcmitype/StillImage" />
        <dc:title />
      </cc:Work>
    </rdf:RDF>
  </metadata>
  <g
     inkscape:label="Logo"
     inkscape:groupmode="layer"
     id="layer1"
     transform="translate(30.635276,-851.77579)">
    <path
       sodipodi:type="arc"
       id="path2985"
       sodipodi:cx="97.5"
       sodipodi:cy="593.79077"
       sodipodi:rx="48.214287"
       sodipodi:ry="47.857143"
       d="m 145.71429,593.79077 c 0,26.43077 -21.58627,47.85714 -48.21429,47.85714 -26.628015,0 -48.214287,-21.42637 -48.214287,-47.85714 0,-26.43077 21.586272,-47.85714 48.214287,-47.85714 26.62802,0 48.21429,21.42637 48.21429,47.85714 z"
       transform="matrix(0.90668499,0,0,0.86497548,44.899301,524.62279)"
       inkscape:export-filename="/home2/mathieur/Documents/nantes_cargo_bike_meeting/logo.png"
       inkscape:export-xdpi="90"
       inkscape:export-ydpi="90"
       style="fill:#000000;fill-opacity:0;stroke-width:10.85667229;stroke-miterlimit:4;stroke-opacity:1;stroke-dasharray:none" />
    <path
       sodipodi:type="arc"
       id="path2985-5"
       sodipodi:cx="97.5"
       sodipodi:cy="593.79077"
       sodipodi:rx="48.214287"
       sodipodi:ry="47.857143"
       d="m 145.71429,593.79077 c 0,26.43077 -21.58627,47.85714 -48.21429,47.85714 -26.628015,0 -48.214287,-21.42637 -48.214287,-47.85714 0,-26.43077 21.586272,-47.85714 48.214287,-47.85714 26.62802,0 48.21429,21.42637 48.21429,47.85714 z"
       transform="matrix(0.53646265,0,0,0.53594112,403.23029,735.14318)"
       inkscape:export-filename="/home2/mathieur/Documents/nantes_cargo_bike_meeting/logo.png"
       inkscape:export-xdpi="90"
       inkscape:export-ydpi="90"
       style="fill:#000000;fill-opacity:0;stroke-width:17.93075371;stroke-miterlimit:4;stroke-opacity:1;stroke-dasharray:none" />
    <path
       d="M 193.11866,1041.1051 167.17647,971.32762"
       id="path4003"
       inkscape:path-effect="#path-effect4005"
       inkscape:original-d="M 193.11866,1041.1051 C 167.50088,972.13278 167.17647,971.32762 167.17647,971.32762"
       inkscape:connector-curvature="0"
       inkscape:export-filename="/home2/mathieur/Documents/nantes_cargo_bike_meeting/logo.png"
       inkscape:export-xdpi="90"
       inkscape:export-ydpi="90"
       style="fill:none;stroke-width:4.64655161;stroke-linecap:butt;stroke-linejoin:miter;stroke-miterlimit:4;stroke-opacity:1;stroke-dasharray:none" />
    <path
       style="fill:none;stroke-width:3.43375111;stroke-linecap:butt;stroke-linejoin:miter;stroke-miterlimit:4;stroke-opacity:1;stroke-dasharray:none"
       d="m 248.22521,1067.6669 c -7.2945,-9.3285 -14.85172,-18.4516 -22.6597,-27.3548 -6.71375,-7.6555 -13.61288,-15.1484 -20.6893,-22.4699"
       id="path4007"
       inkscape:path-effect="#path-effect4009"
       inkscape:original-d="m 248.22521,1067.6669 c 0,0 0,0 -22.6597,-27.3548 -20.6893,-22.4699 -20.6893,-22.4699 -20.6893,-22.4699"
       inkscape:connector-curvature="0"
       inkscape:export-filename="/home2/mathieur/Documents/nantes_cargo_bike_meeting/logo.png"
       inkscape:export-xdpi="90"
       inkscape:export-ydpi="90" />
    <path
       style="fill:none;stroke-width:4.80725098;stroke-linecap:round;stroke-linejoin:miter;stroke-miterlimit:4;stroke-opacity:1;stroke-dasharray:none"
       d="m 198.53047,1018.8191 18.99677,0"
       id="path4011"
       inkscape:path-effect="#path-effect4013"
       inkscape:original-d="m 198.53047,1018.8191 c 17.80947,-0.9769 18.99677,0 18.99677,0"
       inkscape:connector-curvature="0"
       inkscape:export-filename="/home2/mathieur/Documents/nantes_cargo_bike_meeting/logo.png"
       inkscape:export-xdpi="90"
       inkscape:export-ydpi="90" />
    <path
       style="fill:none;stroke-width:4.80725098;stroke-linecap:round;stroke-linejoin:miter;stroke-miterlimit:4;stroke-opacity:1;stroke-dasharray:none"
       d="m 238.37316,1068.4485 17.73367,0.977"
       id="path4015"
       inkscape:path-effect="#path-effect4017"
       inkscape:original-d="m 238.37316,1068.4485 c 17.73367,0.977 17.73367,0.977 17.73367,0.977"
       inkscape:connector-curvature="0"
       inkscape:export-filename="/home2/mathieur/Documents/nantes_cargo_bike_meeting/logo.png"
       inkscape:export-xdpi="90"
       inkscape:export-ydpi="90" />
    <path
       style="fill:none;stroke-width:6.35930681;stroke-linecap:round;stroke-linejoin:round;stroke-miterlimit:4;stroke-opacity:1;stroke-dasharray:none;marker-mid:none;marker-end:none"
       d="m 156.07473,968.42917 25.48594,3.27966"
       id="path4023"
       inkscape:path-effect="#path-effect4025"
       inkscape:original-d="m 156.07473,968.42917 c 25.18254,2.28247 25.48594,3.27966 25.48594,3.27966"
       inkscape:connector-curvature="0"
       inkscape:export-filename="/home2/mathieur/Documents/nantes_cargo_bike_meeting/logo.png"
       inkscape:export-xdpi="90"
       inkscape:export-ydpi="90" />
    <path
       style="fill:none;stroke-width:6.28865385;stroke-linecap:round;stroke-linejoin:round;stroke-miterlimit:4;stroke-opacity:1;stroke-dasharray:none;marker-mid:none;marker-end:none"
       d="m 250.70195,951.25137 23.501,1.0971"
       id="path4023-0"
       inkscape:path-effect="#path-effect4025-4"
       inkscape:original-d="m 250.70195,951.25137 c 23.14285,0.0643 23.501,1.0971 23.501,1.0971"
       inkscape:connector-curvature="0"
       inkscape:export-filename="/home2/mathieur/Documents/nantes_cargo_bike_meeting/logo.png"
       inkscape:export-xdpi="90"
       inkscape:export-ydpi="90" />
    <path
       sodipodi:type="arc"
       style="fill:#000000;fill-opacity:0;stroke-width:7.07650042;stroke-linecap:round;stroke-linejoin:round;stroke-miterlimit:4;stroke-opacity:1;stroke-dasharray:none"
       id="path4438"
       sodipodi:cx="207.14285"
       sodipodi:cy="816.64789"
       sodipodi:rx="13.571428"
       sodipodi:ry="10"
       d="m 220.71428,816.64789 a 13.571428,10 0 1 1 -27.14286,0 13.571428,10 0 1 1 27.14286,0 z"
       transform="matrix(0.39314857,0,0,0.79210434,289.51177,306.34235)"
       inkscape:export-filename="/home2/mathieur/Documents/nantes_cargo_bike_meeting/logo.png"
       inkscape:export-xdpi="90"
       inkscape:export-ydpi="90" />
    <path
       style="fill:none;stroke-width:5.78679514;stroke-linecap:round;stroke-linejoin:round;stroke-miterlimit:4;stroke-opacity:1;stroke-dasharray:none"
       d="m 358.24608,937.33247 c -3.41878,2.30564 3.76595,-24.16865 -15.01828,-16.20034 -3.491,1.48089 -33.63383,5.48374 -31.81223,24.51666 0.6963,7.27537 0.2978,14.24999 8.03501,22.43252 4.71506,4.98648 13.57183,17.00141 19.50689,14.84505 9.06124,-3.29218 19.16932,-26.56534 19.16932,-26.56534"
       id="path4524"
       inkscape:connector-curvature="0"
       sodipodi:nodetypes="cssssc"
       inkscape:export-filename="/home2/mathieur/Documents/nantes_cargo_bike_meeting/logo.png"
       inkscape:export-xdpi="90"
       inkscape:export-ydpi="90" />
    <path
       style="fill:none;stroke-width:7.69864845;stroke-linecap:round;stroke-linejoin:round;stroke-miterlimit:4;stroke-opacity:1;stroke-dasharray:none"
       d="m 128.81561,1037.9207 c 122.03074,3.0505 122.91984,1.7378 122.91984,1.7378 0,0 13.78125,-56.44435 14.22581,-85.32286"
       id="path4554"
       inkscape:connector-curvature="0"
       inkscape:export-filename="/home2/mathieur/Documents/nantes_cargo_bike_meeting/logo.png"
       inkscape:export-xdpi="90"
       inkscape:export-ydpi="90" />
    <path
       style="fill:none;stroke-width:7.04297876;stroke-linecap:round;stroke-linejoin:miter;stroke-miterlimit:4;stroke-opacity:1;stroke-dasharray:none"
       d="m 257.45361,1010.6025 c -5.47651,29.0604 28.99724,40.3556 28.99724,40.3556 l 124.26296,3.0184"
       id="path4556"
       inkscape:connector-curvature="0"
       sodipodi:nodetypes="ccc"
       inkscape:export-filename="/home2/mathieur/Documents/nantes_cargo_bike_meeting/logo.png"
       inkscape:export-xdpi="90"
       inkscape:export-ydpi="90" />
    <path
       style="fill:none;stroke-width:5.49400187;stroke-linecap:round;stroke-linejoin:miter;stroke-miterlimit:4;stroke-opacity:1;stroke-dasharray:none"
       d="m 410.71381,1053.9765 c 9.53309,-14.6297 13.08172,-26.3441 18.21713,-34.225 14.16741,-21.7416 17.61563,-20.76449 17.61563,-20.76449 -4.43343,29.30859 8.98884,54.39299 8.98884,54.39299"
       id="path3014"
       inkscape:connector-curvature="0"
       sodipodi:nodetypes="cscc"
       inkscape:export-filename="/home2/mathieur/Documents/nantes_cargo_bike_meeting/logo.png"
       inkscape:export-xdpi="90"
       inkscape:export-ydpi="90" />
    <path
       style="fill:none;stroke-width:4.08498859;stroke-linecap:round;stroke-linejoin:round;stroke-miterlimit:4;stroke-opacity:1;stroke-dasharray:none"
       d="m 366.62674,931.4999 c 1.45793,1.43988 7.56844,-0.77519 14.24606,5.19212 4.73448,4.23085 7.80742,15.54318 11.08554,19.16482 4.97195,10.33142 14.24244,3.23482 18.41128,-7.46102 5.71275,-14.657 19.04917,-12.31645 24.42178,-10.57758"
       id="path3786"
       inkscape:connector-curvature="0"
       sodipodi:nodetypes="cscsc"
       inkscape:export-filename="/home2/mathieur/Documents/nantes_cargo_bike_meeting/logo.png"
       inkscape:export-xdpi="90"
       inkscape:export-ydpi="90" />
    <path
       style="fill:none;stroke-width:3.64125156;stroke-linecap:butt;stroke-linejoin:miter;stroke-miterlimit:4;stroke-opacity:1;stroke-dasharray:none"
       d="m 323.27843,978.3331 c -13.55271,27.8148 -1.11712,17.98707 -4.37186,41.2725"
       id="path3792"
       inkscape:connector-curvature="0"
       inkscape:export-filename="/home2/mathieur/Documents/nantes_cargo_bike_meeting/logo.png"
       inkscape:export-xdpi="90"
       inkscape:export-ydpi="90"
       sodipodi:nodetypes="cc" />
    <path
       style="fill:none;stroke-width:1.37350047px;stroke-linecap:butt;stroke-linejoin:miter;stroke-opacity:1"
       d="M 295.31764,982.37863 z"
       id="path3794"
       inkscape:connector-curvature="0"
       inkscape:export-filename="/home2/mathieur/Documents/nantes_cargo_bike_meeting/logo.png"
       inkscape:export-xdpi="90"
       inkscape:export-ydpi="90" />
    <path
       style="fill:none;stroke-width:2.85260844;stroke-linecap:butt;stroke-linejoin:miter;stroke-miterlimit:4;stroke-opacity:1;stroke-dasharray:none"
       d="m 373.33648,980.58618 c 7.49022,25.93592 6.57817,21.80622 -4.99801,41.04152"
       id="path3792-9"
       inkscape:connector-curvature="0"
       inkscape:export-filename="/home2/mathieur/Documents/nantes_cargo_bike_meeting/logo.png"
       inkscape:export-xdpi="90"
       inkscape:export-ydpi="90"
       sodipodi:nodetypes="cc" />
    <path
       sodipodi:type="arc"
       style="stroke-width:5;stroke-linecap:round;stroke-linejoin:round;stroke-miterlimit:4;stroke-dasharray:none"
       id="path3825"
       sodipodi:cx="516.78571"
       sodipodi:cy="453.43359"
       sodipodi:rx="6.7857141"
       sodipodi:ry="4.6428571"
       d="m 523.57142,453.43359 a 6.7857141,4.6428571 0 1 1 -13.57143,0 6.7857141,4.6428571 0 1 1 13.57143,0 z"
       transform="matrix(0.31899595,0,0,0.57606098,207.52323,693.07715)"
       inkscape:export-filename="/home2/mathieur/Documents/nantes_cargo_bike_meeting/logo.png"
       inkscape:export-xdpi="90"
       inkscape:export-ydpi="90" />
    <text
       xml:space="preserve"
       style="font-size:55.90406036px;font-style:normal;font-weight:normal;text-align:center;line-height:137.99999952%;letter-spacing:0px;word-spacing:0px;text-anchor:middle;fill:#000000;fill-opacity:1;stroke:none;font-family:Sans"
       x="283.1619"
       y="1162.1078"
       id="text3063"
       sodipodi:linespacing="138%"
       transform="scale(1.0223695,0.97811993)"><tspan
         sodipodi:role="line"
         x="283.1619"
         y="1162.1078"
         id="tspan3065"><tspan
           x="283.1619"
           y="1162.1078"
           style="font-variant:normal;font-stretch:normal;font-family:Arial;-inkscape-font-specification:Arial"
           id="tspan3067">Nantes Cargo Bike</tspan></tspan><tspan
         sodipodi:role="line"
         x="283.1619"
         y="1202.4958"
         id="tspan3069"
         style="font-size:21.78796005px;line-height:137.99999952%">Promouvoir le vélo cargo dans la métropole nantaise</tspan></text>
    <path
       style="fill:none;stroke:#000000;stroke-width:4.94457722;stroke-linecap:butt;stroke-linejoin:miter;stroke-miterlimit:4;stroke-opacity:1;stroke-dasharray:none"
       d="m 257.33903,1020.6955 165.99222,4.963 0,0 0,0 0,0 0,0"
       id="path3033"
       inkscape:connector-curvature="0" />
    <path
       style="opacity:0.3456376;fill:#000000;fill-opacity:1;stroke:#000000;stroke-width:1.10500002;stroke-linecap:round;stroke-linejoin:miter;stroke-miterlimit:4;stroke-opacity:1;stroke-dasharray:none;stroke-dashoffset:0"
       id="path3862"
       d="m 412.29524,117.98687 c -0.0466,0.96247 -0.006,1.91949 0.1013,2.87583 0.032,0.6129 0.18585,1.20616 0.28374,1.80911 0.0805,0.56649 0.18427,1.13286 0.31379,1.69043 0.094,0.52084 0.30655,0.99622 0.54161,1.46617 0.27444,0.61811 0.61167,1.20307 0.92466,1.80182 0.29626,0.54469 0.61993,1.0734 0.98472,1.57507 0.31774,0.49682 0.73835,0.92317 1.18472,1.30503 0.65374,0.46616 1.22393,1.03832 1.863,1.52006 0.51278,0.40756 1.07619,0.73461 1.65074,1.04455 0.42767,0.19463 0.86321,0.36007 1.29395,0.54622 0.48944,0.2022 0.98856,0.36639 1.50734,0.47717 0.98688,0.27766 2.01302,0.3239 3.02059,0.47658 0.67606,0.12013 1.35669,0.20305 2.04226,0.23818 0.50838,0.0194 1.01725,0.0167 1.52589,0.0159 0.50261,-0.001 1.00522,-0.002 1.50783,-0.002 0.4029,-0.1527 0.85466,-0.12165 1.25024,-0.27915 0.42004,-0.12912 0.84928,-0.19752 1.27407,-0.30945 0.47359,-0.0481 0.91336,-0.19895 1.37207,-0.3098 0.53157,-0.0634 1.04712,-0.20373 1.57747,-0.28195 0.44037,-0.11184 0.87116,-0.24017 1.304,-0.37643 0,0 -2.96789,2.29672 -2.96789,2.29672 l 0,0 c -0.43805,0.13577 -0.88427,0.24741 -1.3346,0.33422 -0.5226,0.096 -1.0443,0.20139 -1.56309,0.31445 -0.45225,0.12764 -0.91481,0.1914 -1.37006,0.30713 -0.42445,0.10815 -0.85896,0.17398 -1.27505,0.31584 -0.43411,0.0702 -0.86453,0.18187 -1.30484,0.19595 -0.50278,6.7e-4 -1.00555,0.002 -1.50832,0.002 -0.5127,-0.001 -1.02591,-0.002 -1.53762,-0.0381 -0.68384,-0.056 -1.3608,-0.16199 -2.03703,-0.27687 -1.02075,-0.13874 -2.04787,-0.23998 -3.04923,-0.49523 -0.53575,-0.13324 -1.05965,-0.29664 -1.5644,-0.52259 -0.43632,-0.19434 -0.89076,-0.34732 -1.3097,-0.58027 -0.5759,-0.33675 -1.14753,-0.67835 -1.6664,-1.10112 -0.63053,-0.50662 -1.22688,-1.05504 -1.8795,-1.53527 -0.45869,-0.41148 -0.90926,-0.84456 -1.23526,-1.37247 -0.37385,-0.51759 -0.69631,-1.0675 -1.00212,-1.62747 -0.31506,-0.59946 -0.65887,-1.18288 -0.93664,-1.80129 -0.25175,-0.49289 -0.48698,-0.99045 -0.58438,-1.53983 -0.14553,-0.5634 -0.23478,-1.14601 -0.32673,-1.71967 -0.0931,-0.6116 -0.26098,-1.21009 -0.28017,-1.83203 -0.0986,-0.96801 -0.14202,-1.93361 -0.12742,-2.90712 0,0 3.33646,-1.7 3.33646,-1.7 z"
       inkscape:connector-curvature="0"
       transform="translate(-30.635276,851.77579)" />
    <path
       style="opacity:0.34563759999999999;fill:#000000;fill-opacity:1;stroke:#000000;stroke-width:0.27905464000000002;stroke-linecap:round;stroke-linejoin:miter;stroke-miterlimit:4;stroke-opacity:1;stroke-dasharray:none;stroke-dashoffset:0"
       d="m 421.76416,136.99643 c -2.503,-0.42716 -4.15082,-1.03614 -5.9497,-2.19881 -2.31618,-1.49702 -4.02153,-3.35072 -5.2291,-5.68398 -1.20182,-2.32215 -1.72146,-4.28799 -1.97252,-7.46213 l -0.17323,-2.19022 2.04785,-1.02964 c 1.12631,-0.5663 2.10719,-1.02964 2.17972,-1.02964 0.0725,0 0.13164,0.76709 0.13136,1.70464 -10e-4,4.66464 1.60947,8.75125 4.47884,11.3623 3.04036,2.76664 5.76571,3.65866 11.30531,3.70028 2.89863,0.0218 4.028,-0.0843 6.26933,-0.58891 2.24876,-0.50629 2.77116,-0.55503 2.94438,-0.27475 0.14985,0.24244 -0.22738,0.68108 -1.30772,1.5206 -1.39151,1.08133 -1.77487,1.23609 -4.59041,1.85311 -3.41781,0.74901 -6.95492,0.8597 -10.13411,0.31715 z"
       id="path3864"
       inkscape:connector-curvature="0"
       transform="translate(-30.635276,851.77579)" />
    <path
       style="opacity:0.3456376;fill:#000000;fill-opacity:1;stroke:#000000;stroke-width:0.27905464;stroke-linecap:round;stroke-linejoin:miter;stroke-miterlimit:4;stroke-opacity:1;stroke-dasharray:none;stroke-dashoffset:0"
       d="m 423.30962,137.17257 c -0.0294,-0.0295 -0.50278,-0.11295 -1.05199,-0.18539 -1.12135,-0.14788 -2.9282,-0.53309 -3.08199,-0.65705 -0.0347,-0.028 -0.14836,-0.0668 -0.25254,-0.0863 -0.10417,-0.0195 -0.33103,-0.12537 -0.50412,-0.23529 -0.1731,-0.10992 -0.54441,-0.24409 -0.82514,-0.29815 -0.28072,-0.0541 -0.68701,-0.27491 -0.90287,-0.49076 -0.21585,-0.21586 -0.55481,-0.39246 -0.75323,-0.39246 -0.19842,0 -0.36154,-0.0852 -0.36249,-0.18941 -9.5e-4,-0.10417 -0.41743,-0.47258 -0.9255,-0.81868 -0.74545,-0.5078 -2.57319,-2.52104 -3.56182,-3.92331 -0.28566,-0.40518 -1.18949,-2.20275 -1.22463,-2.4356 -0.0174,-0.11503 -0.06,-0.26597 -0.0947,-0.33542 -0.0347,-0.0695 -0.0915,-0.23991 -0.12627,-0.37881 -0.0347,-0.13889 -0.086,-0.28094 -0.11403,-0.31567 -0.0521,-0.0647 -0.1257,-0.34532 -0.38074,-1.45209 -0.18,-0.78116 -0.35794,-2.21906 -0.50065,-4.04565 l -0.10891,-1.394 1.92843,-1.00512 c 1.06064,-0.55281 1.99096,-1.03337 2.06739,-1.06792 0.0764,-0.0345 0.17269,0.93141 0.21391,2.14658 0.15609,4.60109 1.40713,7.72491 4.23328,10.57044 1.94131,1.95461 3.97965,3.10443 6.42465,3.62411 2.20496,0.46867 7.49473,0.63106 9.09137,0.27909 0.76393,-0.1684 1.72988,-0.36024 2.14657,-0.42632 1.47401,-0.23375 1.77046,-0.28445 2.02031,-0.34553 0.13889,-0.034 0.47982,-0.0452 0.75761,-0.025 0.43404,0.0316 0.37774,0.15121 -0.40032,0.85066 -1.4746,1.3256 -1.9476,1.66481 -2.10372,1.50869 -0.0812,-0.0812 -0.14761,-0.034 -0.14761,0.10493 0,0.13889 -0.14205,0.26235 -0.31567,0.27435 -0.17362,0.012 -0.57137,0.0878 -0.88388,0.16836 -1.79276,0.46237 -2.13126,0.52864 -3.97748,0.77868 -1.17901,0.15967 -6.16501,0.31684 -6.28322,0.19806 l 0,0 z"
       id="path3866"
       inkscape:connector-curvature="0"
       transform="translate(-30.635276,851.77579)" />
  </g>
</svg>
