<?xml version="1.0" encoding="UTF-8" standalone="no"?>
<!-- Created with Inkscape (http://www.inkscape.org/) -->

<svg
   xmlns:dc="http://purl.org/dc/elements/1.1/"
   xmlns:cc="http://creativecommons.org/ns#"
   xmlns:rdf="http://www.w3.org/1999/02/22-rdf-syntax-ns#"
   xmlns:svg="http://www.w3.org/2000/svg"
   xmlns="http://www.w3.org/2000/svg"
   xmlns:sodipodi="http://sodipodi.sourceforge.net/DTD/sodipodi-0.dtd"
   xmlns:inkscape="http://www.inkscape.org/namespaces/inkscape"
   width="400"
   height="150"
   id="svg3968"
   version="1.1"
   inkscape:version="0.48.5 r10040"
   sodipodi:docname="logo.svg">
  <defs
     id="defs3970" />
  <sodipodi:namedview
     id="base"
     pagecolor="#ffffff"
     bordercolor="#666666"
     borderopacity="1.0"
     inkscape:pageopacity="0.0"
     inkscape:pageshadow="2"
     inkscape:zoom="1.979899"
     inkscape:cx="177.26102"
     inkscape:cy="-27.104444"
     inkscape:document-units="px"
     inkscape:current-layer="layer1"
     showgrid="false"
     fit-margin-top="0"
     fit-margin-left="0"
     fit-margin-right="0"
     fit-margin-bottom="0"
     inkscape:window-width="1920"
     inkscape:window-height="1025"
     inkscape:window-x="0"
     inkscape:window-y="33"
     inkscape:window-maximized="1" />
  <metadata
     id="metadata3973">
    <rdf:RDF>
      <cc:Work
         rdf:about="">
        <dc:format>image/svg+xml</dc:format>
        <dc:type
           rdf:resource="http://purl.org/dc/dcmitype/StillImage" />
        <dc:title></dc:title>
      </cc:Work>
    </rdf:RDF>
  </metadata>
  <g
     inkscape:label="Layer 1"
     inkscape:groupmode="layer"
     id="layer1"
     transform="translate(-229.62321,-409.6858)">
    <path
       inkscape:connector-curvature="0"
       d="m 447.45536,458.85569 v -19.75442 c 0,-0.44392 0.21082,-0.66588 0.52705,-0.88784 0.31622,-0.22196 0.84327,-0.33294 1.37031,-0.33294 0.73787,0 1.26491,0.11098 1.58114,0.44392 0.31623,0.22196 0.73786,0.88784 1.26491,1.6647 l 5.58668,11.31995 v -12.20779 c 0,-0.44392 0.21082,-0.66588 0.52705,-0.88784 0.31623,-0.22196 0.84327,-0.33294 1.37032,-0.33294 0.52704,0 0.94868,0.11098 1.37032,0.33294 0.31622,0.22196 0.52704,0.5549 0.52704,0.88784 v 19.75442 c 0,0.33294 -0.21082,0.66588 -0.52704,0.88784 -0.31623,0.22196 -0.84328,0.33294 -1.26491,0.33294 -1.05409,0 -1.79196,-0.44392 -2.21359,-1.22078 L 451.3555,446.6479 v 12.20779 c 0,0.33294 -0.21082,0.66588 -0.52705,0.88784 -0.31623,0.22196 -0.84327,0.33294 -1.26491,0.33294 -0.52704,0 -0.94868,-0.11098 -1.37032,-0.33294 -0.52704,-0.11098 -0.73786,-0.44392 -0.73786,-0.88784 z"
       id="path755" />
    <path
       inkscape:connector-curvature="0"
       d="m 464.74246,458.41177 c 0,0 0,-0.11098 0.1054,-0.33294 l 5.58669,-19.08854 c 0.10541,-0.33294 0.42163,-0.66588 0.84327,-0.88784 0.42164,-0.22196 0.94868,-0.33294 1.58114,-0.33294 0.52704,0 1.05409,0.11098 1.58113,0.33294 0.42164,0.22196 0.73787,0.5549 0.84328,0.99882 l 5.58668,19.08854 c 0,0.11098 0.10541,0.22196 0.10541,0.33294 0,0.44392 -0.21082,0.77686 -0.73786,1.1098 -0.52705,0.33294 -1.0541,0.44392 -1.58114,0.44392 -0.73786,0 -1.1595,-0.22196 -1.26491,-0.77686 l -1.05409,-3.99527 h -6.21914 l -1.05409,3.99527 c -0.10541,0.5549 -0.63246,0.77686 -1.47573,0.77686 -0.63245,0 -1.26491,-0.22196 -1.79195,-0.5549 -0.73787,-0.22196 -1.05409,-0.66588 -1.05409,-1.1098 z m 6.00832,-6.21487 h 4.95422 l -2.52982,-9.32231 -2.4244,9.32231 z"
       id="path757" />
    <path
       inkscape:connector-curvature="0"
       d="m 484.98101,458.85569 v -19.75442 c 0,-0.44392 0.21081,-0.66588 0.52704,-0.88784 0.31623,-0.22196 0.84327,-0.33294 1.37032,-0.33294 0.73786,0 1.26491,0.11098 1.58114,0.44392 0.31622,0.22196 0.73786,0.88784 1.26491,1.6647 l 5.58668,11.31995 v -12.20779 c 0,-0.44392 0.21082,-0.66588 0.52704,-0.88784 0.31623,-0.22196 0.84328,-0.33294 1.37032,-0.33294 0.52705,0 0.94869,0.11098 1.37032,0.33294 0.31623,0.22196 0.52705,0.5549 0.52705,0.88784 v 19.75442 c 0,0.33294 -0.21082,0.66588 -0.52705,0.88784 -0.31623,0.22196 -0.84327,0.33294 -1.26491,0.33294 -1.05409,0 -1.79195,-0.44392 -2.21359,-1.22078 l -6.21914,-12.20779 v 12.20779 c 0,0.33294 -0.21082,0.66588 -0.52704,0.88784 -0.31623,0.22196 -0.84328,0.33294 -1.26491,0.33294 -0.52705,0 -0.94868,-0.11098 -1.37032,-0.33294 -0.52705,-0.11098 -0.73786,-0.44392 -0.73786,-0.88784 z"
       id="path759" />
    <path
       inkscape:connector-curvature="0"
       d="m 502.79515,439.65617 c 0,-0.44392 0.10541,-0.88784 0.31622,-1.22078 0.21082,-0.33294 0.52705,-0.5549 0.84328,-0.5549 h 12.22745 c 0.42164,0 0.63246,0.22196 0.84328,0.5549 0.21082,0.33294 0.31622,0.77686 0.31622,1.22078 0,0.44392 -0.1054,0.88784 -0.31622,1.22078 -0.21082,0.33294 -0.52705,0.5549 -0.84328,0.5549 h -4.21636 v 17.53482 c 0,0.33294 -0.21082,0.66588 -0.52705,0.88784 -0.31622,0.22196 -0.84327,0.33294 -1.26491,0.33294 -0.52704,0 -0.94868,-0.11098 -1.37031,-0.33294 -0.31623,-0.22196 -0.52705,-0.5549 -0.52705,-0.88784 v -17.6458 h -4.21636 c -0.31623,0 -0.63246,-0.22196 -0.84328,-0.5549 -0.31622,-0.22196 -0.42163,-0.66588 -0.42163,-1.1098 z"
       id="path761" />
    <path
       inkscape:connector-curvature="0"
       d="m 521.24174,458.85569 v -19.75442 c 0,-0.33294 0.21082,-0.66588 0.52705,-0.88784 0.31622,-0.22196 0.73786,-0.33294 1.1595,-0.33294 h 10.33009 c 0.42164,0 0.63246,0.22196 0.84327,0.5549 0.21082,0.33294 0.31623,0.77686 0.31623,1.22078 0,0.44392 -0.10541,0.88784 -0.31623,1.22078 -0.21081,0.33294 -0.52704,0.5549 -0.84327,0.5549 h -8.22191 v 6.10389 h 4.42718 c 0.31623,0 0.63246,0.11098 0.84328,0.44392 0.21081,0.33294 0.31622,0.66588 0.31622,1.1098 0,0.33294 -0.10541,0.77686 -0.31622,0.99882 -0.21082,0.33294 -0.52705,0.44392 -0.84328,0.44392 h -4.42718 v 6.1039 h 8.22191 c 0.31623,0 0.63246,0.22196 0.84327,0.5549 0.21082,0.33294 0.31623,0.77686 0.31623,1.22077 0,0.44392 -0.10541,0.88784 -0.31623,1.22078 -0.21081,0.33294 -0.52704,0.5549 -0.84327,0.5549 h -10.33009 c -0.42164,0 -0.84328,-0.11098 -1.1595,-0.33294 -0.31623,-0.22196 -0.52705,-0.5549 -0.52705,-0.99882 z"
       id="path763" />
    <path
       inkscape:connector-curvature="0"
       d="m 537.26393,456.6361 c 0,-0.44392 0.21082,-0.88784 0.52704,-1.44274 0.31623,-0.44392 0.73787,-0.66588 1.1595,-0.66588 0.21082,0 0.52705,0.11098 0.84328,0.33294 0.31622,0.22196 0.63245,0.5549 0.94868,0.88784 0.31623,0.33294 0.73786,0.5549 1.26491,0.88784 0.52704,0.22196 1.1595,0.33294 1.89736,0.33294 0.94868,0 1.68655,-0.22196 2.319,-0.66588 0.63246,-0.44392 0.94868,-1.1098 0.94868,-1.99764 0,-0.5549 -0.21081,-1.1098 -0.52704,-1.6647 -0.31623,-0.44392 -0.73786,-0.88784 -1.37032,-1.22078 -0.52704,-0.33294 -1.1595,-0.66588 -1.79195,-0.88784 -0.63246,-0.33294 -1.26491,-0.66588 -2.00278,-0.99882 -0.63245,-0.33294 -1.26491,-0.77686 -1.79195,-1.22078 -0.52705,-0.44392 -0.94868,-1.1098 -1.37032,-1.77568 -0.31623,-0.77686 -0.52705,-1.6647 -0.52705,-2.55253 0,-1.1098 0.21082,-2.10862 0.63246,-2.88548 0.42163,-0.88784 0.94868,-1.44274 1.68654,-1.99764 0.73787,-0.5549 1.47573,-0.77686 2.2136,-0.99882 0.73786,-0.22196 1.58113,-0.33294 2.52981,-0.33294 0.52705,0 1.0541,0 1.58114,0.11098 0.52705,0.11098 1.1595,0.22196 1.79196,0.33294 0.63245,0.11098 1.1595,0.44392 1.58113,0.77686 0.42164,0.33294 0.63246,0.77686 0.63246,1.22078 0,0.44392 -0.10541,0.88784 -0.42164,1.44274 -0.31623,0.44392 -0.63245,0.77686 -1.05409,0.77686 -0.21082,0 -0.63246,-0.22196 -1.37032,-0.5549 -0.73786,-0.33294 -1.58114,-0.5549 -2.52982,-0.5549 -1.05409,0 -1.89736,0.22196 -2.42441,0.66588 -0.52704,0.44392 -0.84327,0.99882 -0.84327,1.6647 0,0.5549 0.21082,1.10979 0.73786,1.55371 0.42164,0.44392 1.05409,0.77686 1.68655,1.1098 0.63245,0.22196 1.47573,0.66588 2.21359,0.99882 0.84327,0.44392 1.58114,0.88784 2.21359,1.33176 0.63246,0.44392 1.26491,1.22078 1.68655,2.10862 0.42163,0.88784 0.73786,1.99764 0.73786,3.21842 0,2.10862 -0.63245,3.66234 -1.89736,4.77213 -1.26491,1.1098 -2.95146,1.6647 -4.95423,1.6647 -1.79196,0 -3.37309,-0.44392 -4.74341,-1.22078 -1.58114,-0.77686 -2.21359,-1.66469 -2.21359,-2.55253 z"
       id="path765" />
    <path
       d="m 545.83685,491.97972 v -19.75443 c 0,-0.33294 0.21082,-0.66588 0.52705,-0.88784 0.31622,-0.22196 0.73786,-0.33294 1.1595,-0.33294 h 5.58668 c 3.90014,0 5.7975,1.77568 5.7975,5.32704 0,2.44155 -0.84327,4.10625 -2.42441,4.88311 0.94868,0.44392 1.68655,0.99882 2.21359,1.6647 0.52705,0.66588 0.73787,1.77568 0.73787,3.21842 v 0.66588 c 0,2.2196 -0.52705,3.8843 -1.58114,4.88312 -1.05409,0.99881 -2.42441,1.55371 -4.21636,1.55371 h -6.21914 c -0.52705,0 -0.84327,-0.11098 -1.1595,-0.33294 -0.31623,-0.33294 -0.42164,-0.5549 -0.42164,-0.88783 z m 3.68932,-12.42976 h 3.26768 c 0.73787,0 1.37032,-0.22196 1.68655,-0.66588 0.42164,-0.44391 0.63245,-1.10979 0.63245,-1.88665 0,-0.77686 -0.21081,-1.44274 -0.63245,-1.88666 -0.42164,-0.44392 -0.94868,-0.66588 -1.68655,-0.66588 h -3.16227 v 5.10507 z m 0,10.09918 h 3.26768 c 1.89737,0 2.84605,-1.1098 2.84605,-3.3294 v -0.44392 c 0,-1.1098 -0.21082,-1.99764 -0.73786,-2.44156 -0.42164,-0.5549 -1.15951,-0.77686 -2.10819,-0.77686 h -3.26768 v 6.99174 z"
       id="path767"
       inkscape:connector-curvature="0" />
    <path
       d="m 563.7564,491.86874 v -19.75443 c 0,-0.44392 0.21082,-0.66588 0.52705,-0.88784 0.31622,-0.22196 0.84327,-0.33294 1.37032,-0.33294 0.52704,0 0.94868,0.11098 1.37031,0.33294 0.31623,0.22196 0.52705,0.5549 0.52705,0.88784 v 19.75443 c 0,0.33293 -0.21082,0.66587 -0.52705,0.88783 -0.31622,0.22196 -0.84327,0.33294 -1.26491,0.33294 -0.52704,0 -0.94868,-0.11098 -1.37031,-0.33294 -0.42164,-0.11098 -0.63246,-0.44392 -0.63246,-0.88783 z"
       id="path769"
       inkscape:connector-curvature="0" />
    <path
       d="m 572.71618,491.86874 v -19.75443 c 0,-0.44392 0.21081,-0.66588 0.52704,-0.88784 0.31623,-0.22196 0.84327,-0.33294 1.37032,-0.33294 0.52705,0 0.94868,0.11098 1.37032,0.33294 0.31623,0.22196 0.52704,0.5549 0.52704,0.88784 v 8.32349 l 6.21914,-8.98937 c 0.31623,-0.33294 0.63246,-0.5549 1.05409,-0.5549 0.52705,0 0.94869,0.22196 1.47573,0.66588 0.52705,0.44392 0.73786,0.88784 0.73786,1.33176 0,0.33294 -0.1054,0.5549 -0.21081,0.77686 l -5.16505,6.76977 6.32455,10.09918 c 0.10541,0.22196 0.21081,0.44392 0.21081,0.66588 0,0.44392 -0.21081,0.88783 -0.73786,1.33175 -0.42164,0.44392 -0.94868,0.66588 -1.58114,0.66588 -0.52704,0 -1.05409,-0.22196 -1.26491,-0.77686 l -5.48127,-8.65643 -1.58114,2.10862 v 5.99292 c 0,0.33293 -0.21081,0.66587 -0.52704,0.88783 -0.31623,0.22196 -0.84327,0.33294 -1.26491,0.33294 -0.52705,0 -0.94868,-0.11098 -1.37032,-0.33294 -0.42164,-0.11098 -0.63245,-0.44392 -0.63245,-0.88783 z"
       id="path771"
       inkscape:connector-curvature="0" />
    <path
       d="m 590.42491,491.86874 v -19.75443 c 0,-0.33294 0.21082,-0.66588 0.52704,-0.88784 0.31623,-0.22196 0.73787,-0.33294 1.1595,-0.33294 h 10.3301 c 0.42163,0 0.63245,0.22196 0.84327,0.5549 0.21082,0.33294 0.31623,0.77686 0.31623,1.22078 0,0.44392 -0.10541,0.88784 -0.31623,1.22078 -0.21082,0.33294 -0.52705,0.5549 -0.84327,0.5549 h -8.22191 v 6.10389 h 4.42718 c 0.31623,0 0.63245,0.11098 0.84327,0.44392 0.21082,0.33294 0.31623,0.66588 0.31623,1.1098 0,0.33294 -0.10541,0.77686 -0.31623,0.99882 -0.21082,0.33294 -0.52704,0.44392 -0.84327,0.44392 h -4.42718 v 6.1039 h 8.22191 c 0.31622,0 0.63245,0.22196 0.84327,0.5549 0.21082,0.33294 0.31623,0.77686 0.31623,1.22078 0,0.44392 -0.10541,0.88783 -0.31623,1.22077 -0.21082,0.33294 -0.52705,0.5549 -0.84327,0.5549 h -10.3301 c -0.42163,0 -0.84327,-0.11098 -1.1595,-0.33294 -0.31622,-0.22196 -0.52704,-0.5549 -0.52704,-0.99881 z"
       id="path773"
       inkscape:connector-curvature="0" />
    <path
       d="m 446.59524,486.66967 v -8.54545 c 0,-2.44156 0.63246,-4.10626 1.89737,-5.32704 1.26491,-1.22078 2.84604,-1.6647 4.84882,-1.6647 2.00277,0 3.68932,0.5549 4.95422,1.55372 1.26491,1.1098 1.89737,2.44156 1.89737,4.21724 0,0.77686 -0.10541,1.22078 -0.42164,1.55372 -0.31622,0.22196 -0.73786,0.44392 -1.47573,0.44392 -1.2649,0 -1.89736,-0.44392 -1.89736,-1.22078 0,-0.22196 0,-0.44392 -0.10541,-0.66588 -0.10541,-0.22196 -0.10541,-0.44392 -0.21082,-0.77686 -0.10541,-0.33294 -0.31622,-0.5549 -0.52704,-0.77686 -0.21082,-0.22196 -0.52705,-0.44392 -0.84328,-0.5549 -0.42163,-0.11098 -0.84327,-0.22196 -1.37031,-0.22196 -2.00278,0 -3.05687,1.22078 -3.05687,3.55136 v 8.54545 c 0,2.33058 1.05409,3.55136 3.05687,3.55136 0.63245,0 1.1595,-0.11098 1.58113,-0.33294 0.42164,-0.22196 0.73787,-0.44392 0.84328,-0.88784 0.21081,-0.33294 0.31622,-0.66588 0.42163,-0.99882 0.10541,-0.33294 0.10541,-0.66588 0.10541,-1.1098 0.10541,-0.88784 0.63246,-1.22078 1.89737,-1.22078 0.63245,0 1.1595,0.11098 1.47572,0.44392 0.31623,0.22196 0.42164,0.77686 0.42164,1.55372 0,1.77568 -0.63245,3.3294 -1.89736,4.32822 -1.26491,1.1098 -2.95146,1.66469 -4.95423,1.66469 -2.00278,0 -3.58391,-0.55489 -4.84882,-1.66469 -1.26491,-1.1098 -1.79196,-2.99646 -1.79196,-5.43802 z"
       id="path775"
       inkscape:connector-curvature="0" />
    <path
       d="m 462.51202,491.77475 c 0,0 0,-0.11098 0.10541,-0.33294 l 5.58668,-19.08855 c 0.10541,-0.33294 0.42164,-0.66588 0.84327,-0.88784 0.42164,-0.22196 0.94869,-0.33294 1.58114,-0.33294 0.52705,0 1.05409,0.11098 1.58114,0.33294 0.42163,0.22196 0.73786,0.5549 0.84327,0.99882 l 5.58668,19.08855 c 0,0.11098 0.10541,0.22196 0.10541,0.33294 0,0.44392 -0.21081,0.77686 -0.73786,1.1098 -0.52705,0.33294 -1.05409,0.44391 -1.58114,0.44391 -0.73786,0 -1.1595,-0.22195 -1.26491,-0.77685 l -1.05409,-3.99528 h -6.21914 l -1.05409,3.99528 c -0.10541,0.5549 -0.63245,0.77685 -1.47572,0.77685 -0.63246,0 -1.26491,-0.22195 -1.79196,-0.55489 -0.73786,-0.22196 -1.05409,-0.66588 -1.05409,-1.1098 z m 6.00832,-6.21488 h 4.95423 l -2.52982,-9.32231 -2.42441,9.32231 z"
       id="path777"
       inkscape:connector-curvature="0" />
    <path
       d="m 482.85598,492.21867 v -19.75443 c 0,-0.33294 0.10541,-0.5549 0.31623,-0.88784 0.21081,-0.22196 0.52704,-0.33294 0.84327,-0.33294 h 5.69209 c 4.53259,0 6.85159,2.10862 6.85159,6.32586 0,1.6647 -0.31622,2.99645 -1.05409,3.99527 -0.63245,0.99882 -1.58113,1.6647 -2.74063,2.10862 l 3.79472,7.43566 c 0.10541,0.11098 0.10541,0.33294 0.10541,0.44392 0,0.5549 -0.21081,0.99882 -0.73786,1.44274 -0.52705,0.44391 -1.05409,0.66587 -1.58114,0.66587 -0.52704,0 -0.94868,-0.33293 -1.26491,-0.88783 l -4.11095,-8.43448 h -2.42441 v 7.99056 c 0,0.33294 -0.21082,0.66588 -0.52705,0.88784 -0.31622,0.22195 -0.84327,0.33293 -1.37032,0.33293 -0.52704,0 -0.94868,-0.11098 -1.26491,-0.33293 -0.31622,-0.22196 -0.52704,-0.5549 -0.52704,-0.99882 z m 3.68932,-10.98702 h 3.16227 c 2.10818,0 3.05687,-1.1098 3.05687,-3.21841 0,-2.2196 -1.0541,-3.21842 -3.05687,-3.21842 h -3.16227 v 6.43683 z"
       id="path779"
       inkscape:connector-curvature="0" />
    <path
       d="m 500.77553,486.66967 v -8.54545 c 0,-2.44156 0.63245,-4.10626 1.79195,-5.32704 1.1595,-1.22078 2.84605,-1.6647 4.84882,-1.6647 2.00278,0 3.68932,0.5549 4.95423,1.55372 1.26489,1.1098 1.89734,2.44156 1.89734,4.21724 0,0.77686 -0.1054,1.22078 -0.42163,1.44274 -0.31623,0.22196 -0.73784,0.44392 -1.47571,0.44392 -1.26491,0 -1.89736,-0.44392 -1.89736,-1.22078 -0.10541,-0.88784 -0.31623,-1.6647 -0.73787,-2.2196 -0.42163,-0.5549 -1.1595,-0.88784 -2.319,-0.88784 -2.00277,0 -3.05686,1.22078 -3.05686,3.55136 v 8.54545 c 0,2.33058 1.05409,3.55136 3.05686,3.55136 0.94869,0 1.68655,-0.33294 2.21359,-0.88784 0.52705,-0.5549 0.84328,-1.44274 0.84328,-2.66352 v -1.77568 h -2.319 c -0.31623,0 -0.63246,-0.11098 -0.84328,-0.44392 -0.21081,-0.33294 -0.31622,-0.66588 -0.31622,-1.1098 0,-0.44392 0.10541,-0.77686 0.31622,-1.1098 0.21082,-0.33294 0.52705,-0.44392 0.84328,-0.44392 h 4.95423 c 0.3162,0 0.63243,0.11098 0.84325,0.33294 0.21082,0.22196 0.31622,0.5549 0.31622,0.88784 v 3.66234 c 0,2.44156 -0.63245,4.21724 -1.89734,5.32704 -1.26491,1.1098 -2.84604,1.66469 -4.95423,1.66469 -2.10818,0 -3.68932,-0.55489 -4.95423,-1.66469 -1.05409,-0.99882 -1.68654,-2.7745 -1.68654,-5.21606 z"
       id="path781"
       inkscape:connector-curvature="0" />
    <path
       d="m 518.80047,486.66967 v -8.54545 c 0,-2.44156 0.63245,-4.21724 1.79195,-5.32704 1.26491,-1.1098 2.84605,-1.6647 4.95423,-1.6647 2.10818,0 3.68932,0.5549 4.95423,1.6647 1.26491,1.1098 1.89736,2.88548 1.89736,5.32704 v 8.54545 c 0,2.44156 -0.63245,4.21724 -1.89736,5.32704 -1.26491,1.1098 -2.84605,1.66469 -4.95423,1.66469 -2.10818,0 -3.68932,-0.55489 -4.95423,-1.66469 -1.1595,-1.1098 -1.79195,-2.88548 -1.79195,-5.32704 z m 3.79473,0 c 0,2.33058 1.05409,3.55136 3.05686,3.55136 2.00277,0 3.05686,-1.22078 3.05686,-3.55136 v -8.54545 c 0,-2.33058 -1.05409,-3.55136 -3.05686,-3.55136 -2.00277,0 -3.05686,1.22078 -3.05686,3.55136 v 8.54545 z"
       id="path783"
       inkscape:connector-curvature="0" />
    <g
       style="opacity:0.5"
       transform="matrix(1.0540912,0,0,1.1097992,-540.75511,-266.731)"
       id="g785">
      <g
         id="g787">
        <path
           inkscape:connector-curvature="0"
           d="m 936.4,703.1 v -5.8 c 0,-0.1 0,-0.2 0.1,-0.2 0.1,-0.1 0.2,-0.1 0.3,-0.1 h 1.8 c 0.6,0 1.1,0.2 1.5,0.5 0.4,0.3 0.6,0.8 0.6,1.5 v 0.1 c 0,0.7 -0.2,1.2 -0.6,1.5 -0.4,0.3 -0.9,0.5 -1.5,0.5 h -1 v 2.1 c 0,0.1 -0.1,0.2 -0.2,0.3 -0.1,0.1 -0.3,0.1 -0.4,0.1 -0.2,0 -0.3,0 -0.4,-0.1 -0.2,-0.2 -0.2,-0.3 -0.2,-0.4 z m 1.1,-3 h 1 c 0.3,0 0.5,-0.1 0.7,-0.3 0.2,-0.2 0.2,-0.4 0.2,-0.8 v 0 c 0,-0.3 -0.1,-0.6 -0.2,-0.8 -0.2,-0.2 -0.4,-0.3 -0.7,-0.3 h -1 v 2.2 z"
           id="path789" />
        <path
           inkscape:connector-curvature="0"
           d="m 942,703.1 v -5.8 c 0,-0.1 0,-0.2 0.1,-0.2 0.1,0 0.2,-0.1 0.3,-0.1 h 1.8 c 1.4,0 2.1,0.6 2.1,1.9 0,0.5 -0.1,0.9 -0.3,1.2 -0.2,0.3 -0.5,0.5 -0.9,0.6 l 1.2,2.2 c 0,0 0,0.1 0,0.1 0,0.1 -0.1,0.3 -0.2,0.4 -0.2,0.1 -0.3,0.2 -0.5,0.2 -0.2,0 -0.3,-0.1 -0.4,-0.3 l -1.3,-2.5 h -0.7 v 2.3 c 0,0.1 -0.1,0.2 -0.2,0.3 -0.1,0.1 -0.2,0.1 -0.4,0.1 -0.2,0 -0.3,0 -0.4,-0.1 -0.1,-0.1 -0.2,-0.2 -0.2,-0.3 z m 1.2,-3.3 h 1 c 0.6,0 1,-0.3 1,-0.9 0,-0.6 -0.3,-1 -1,-1 h -1 v 1.9 z"
           id="path791" />
        <path
           inkscape:connector-curvature="0"
           d="M 947.8,701.5 V 699 c 0,-0.7 0.2,-1.2 0.6,-1.5 0.4,-0.3 0.9,-0.5 1.5,-0.5 0.6,0 1.1,0.2 1.5,0.5 0.4,0.3 0.6,0.8 0.6,1.5 v 2.5 c 0,0.7 -0.2,1.2 -0.6,1.5 -0.4,0.3 -0.9,0.5 -1.5,0.5 -0.6,0 -1.1,-0.2 -1.5,-0.5 -0.5,-0.3 -0.6,-0.8 -0.6,-1.5 z m 1.1,0 c 0,0.7 0.3,1 0.9,1 0.6,0 0.9,-0.3 0.9,-1 V 699 c 0,-0.7 -0.3,-1 -0.9,-1 -0.6,0 -0.9,0.3 -0.9,1 v 2.5 z"
           id="path793" />
        <path
           inkscape:connector-curvature="0"
           d="m 953.6,703.1 v -5.6 c 0,-0.2 0.1,-0.3 0.2,-0.4 0.1,-0.1 0.2,-0.1 0.4,-0.1 0.2,0 0.4,0 0.5,0.1 0.1,0.1 0.2,0.2 0.4,0.5 l 1.1,2 1.1,-2 c 0.1,-0.3 0.3,-0.4 0.4,-0.5 0.1,-0.1 0.3,-0.1 0.5,-0.1 0.2,0 0.3,0 0.4,0.1 0.1,0.1 0.2,0.2 0.2,0.4 v 5.6 c 0,0.1 -0.1,0.2 -0.2,0.3 -0.1,0.1 -0.3,0.1 -0.4,0.1 -0.2,0 -0.3,0 -0.4,-0.1 -0.1,-0.1 -0.2,-0.2 -0.2,-0.3 v -3.8 l -1,1.9 c -0.1,0.2 -0.2,0.2 -0.4,0.2 -0.2,0 -0.3,-0.1 -0.4,-0.2 l -1,-1.9 v 3.9 c 0,0.1 -0.1,0.2 -0.2,0.3 -0.1,0.1 -0.3,0.1 -0.4,0.1 -0.2,0 -0.3,0 -0.4,-0.1 -0.1,-0.2 -0.2,-0.3 -0.2,-0.4 z"
           id="path795" />
        <path
           inkscape:connector-curvature="0"
           d="M 960.5,701.5 V 699 c 0,-0.7 0.2,-1.2 0.6,-1.5 0.4,-0.3 0.9,-0.5 1.5,-0.5 0.6,0 1.1,0.2 1.5,0.5 0.4,0.3 0.6,0.8 0.6,1.5 v 2.5 c 0,0.7 -0.2,1.2 -0.6,1.5 -0.4,0.3 -0.9,0.5 -1.5,0.5 -0.6,0 -1.1,-0.2 -1.5,-0.5 -0.4,-0.3 -0.6,-0.8 -0.6,-1.5 z m 1.2,0 c 0,0.7 0.3,1 0.9,1 0.6,0 0.9,-0.3 0.9,-1 V 699 c 0,-0.7 -0.3,-1 -0.9,-1 -0.6,0 -0.9,0.3 -0.9,1 v 2.5 z"
           id="path797" />
        <path
           inkscape:connector-curvature="0"
           d="m 966.4,701.5 v -4.2 c 0,-0.1 0.1,-0.2 0.2,-0.3 0.1,-0.1 0.2,-0.1 0.4,-0.1 0.2,0 0.3,0 0.4,0.1 0.1,0.1 0.2,0.1 0.2,0.3 v 4.2 c 0,0.7 0.3,1 1,1 0.7,0 1,-0.3 1,-1 v -4.2 c 0,-0.1 0.1,-0.2 0.2,-0.3 0.1,-0.1 0.2,-0.1 0.4,-0.1 0.2,0 0.3,0 0.4,0.1 0.1,0.1 0.2,0.1 0.2,0.3 v 4.2 c 0,0.7 -0.2,1.2 -0.6,1.5 -0.4,0.3 -0.9,0.5 -1.6,0.5 -0.7,0 -1.2,-0.2 -1.6,-0.5 -0.4,-0.3 -0.6,-0.8 -0.6,-1.5 z"
           id="path799" />
        <path
           inkscape:connector-curvature="0"
           d="m 971.9,697.4 c 0,-0.1 0.1,-0.2 0.2,-0.3 0.2,-0.1 0.3,-0.1 0.5,-0.1 0.2,0 0.4,0.1 0.4,0.2 l 1.4,4.8 1.4,-4.8 c 0,-0.2 0.2,-0.2 0.4,-0.2 0.2,0 0.3,0 0.5,0.1 0.2,0.1 0.2,0.2 0.2,0.3 0,0 0,0 0,0.1 l -1.7,5.6 c 0,0.1 -0.1,0.2 -0.3,0.3 -0.2,0.1 -0.3,0.1 -0.5,0.1 -0.4,0 -0.7,-0.1 -0.7,-0.4 l -1.8,-5.7 c 0,0.1 0,0 0,0 z"
           id="path801" />
        <path
           inkscape:connector-curvature="0"
           d="M 978.2,701.5 V 699 c 0,-0.7 0.2,-1.2 0.6,-1.5 0.4,-0.3 0.9,-0.5 1.5,-0.5 0.6,0 1.1,0.2 1.5,0.5 0.4,0.3 0.6,0.8 0.6,1.5 v 2.5 c 0,0.7 -0.2,1.2 -0.6,1.5 -0.4,0.3 -0.9,0.5 -1.5,0.5 -0.6,0 -1.1,-0.2 -1.5,-0.5 -0.5,-0.3 -0.6,-0.8 -0.6,-1.5 z m 1.1,0 c 0,0.7 0.3,1 0.9,1 0.6,0 0.9,-0.3 0.9,-1 V 699 c 0,-0.7 -0.3,-1 -0.9,-1 -0.6,0 -0.9,0.3 -0.9,1 v 2.5 z"
           id="path803" />
        <path
           inkscape:connector-curvature="0"
           d="m 984,703.1 v -5.8 c 0,-0.1 0.1,-0.2 0.2,-0.3 0.1,-0.1 0.2,-0.1 0.4,-0.1 0.2,0 0.3,0 0.4,0.1 0.1,0.1 0.2,0.1 0.2,0.3 v 5.8 c 0,0.1 -0.1,0.2 -0.2,0.3 -0.1,0.1 -0.3,0.1 -0.4,0.1 -0.2,0 -0.3,0 -0.4,-0.1 -0.1,-0.1 -0.2,-0.2 -0.2,-0.3 z"
           id="path805" />
        <path
           inkscape:connector-curvature="0"
           d="m 987,703.1 v -5.8 c 0,-0.1 0,-0.2 0.1,-0.2 0.1,0 0.2,-0.1 0.3,-0.1 h 1.8 c 1.4,0 2.1,0.6 2.1,1.9 0,0.5 -0.1,0.9 -0.3,1.2 -0.2,0.3 -0.5,0.5 -0.9,0.6 l 1.2,2.2 c 0,0 0,0.1 0,0.1 0,0.1 -0.1,0.3 -0.2,0.4 -0.2,0.1 -0.3,0.2 -0.5,0.2 -0.2,0 -0.3,-0.1 -0.4,-0.3 l -1.3,-2.5 h -0.7 v 2.3 c 0,0.1 -0.1,0.2 -0.2,0.3 -0.1,0.1 -0.2,0.1 -0.4,0.1 -0.2,0 -0.3,0 -0.4,-0.1 -0.2,-0.1 -0.2,-0.2 -0.2,-0.3 z m 1.1,-3.3 h 1 c 0.6,0 1,-0.3 1,-0.9 0,-0.6 -0.3,-1 -1,-1 h -1 v 1.9 z"
           id="path807" />
        <path
           inkscape:connector-curvature="0"
           d="m 995.3,703.1 v -5.8 c 0,-0.1 0.1,-0.2 0.2,-0.3 0.1,-0.1 0.2,-0.1 0.4,-0.1 0.2,0 0.3,0 0.4,0.1 0.1,0.1 0.2,0.1 0.2,0.3 v 5.1 h 2.2 c 0.1,0 0.2,0.1 0.3,0.2 0.1,0.1 0.1,0.2 0.1,0.4 0,0.2 0,0.3 -0.1,0.4 -0.1,0.1 -0.1,0.2 -0.3,0.2 h -2.8 c -0.1,0 -0.3,0 -0.4,-0.1 -0.2,-0.2 -0.2,-0.3 -0.2,-0.4 z"
           id="path809" />
        <path
           inkscape:connector-curvature="0"
           d="m 1000.3,703.1 v -5.8 c 0,-0.1 0.1,-0.2 0.2,-0.3 0.1,-0.1 0.2,-0.1 0.4,-0.1 h 3.2 c 0.1,0 0.2,0.1 0.3,0.2 0.1,0.1 0.1,0.2 0.1,0.3 0,0.1 0,0.3 -0.1,0.4 -0.1,0.1 -0.2,0.2 -0.3,0.2 h -2.5 v 1.8 h 1.4 c 0.1,0 0.2,0 0.3,0.1 0.1,0.1 0.1,0.2 0.1,0.3 0,0.1 0,0.2 -0.1,0.3 -0.1,0.1 -0.2,0.1 -0.3,0.1 h -1.4 v 1.8 h 2.5 c 0.1,0 0.2,0.1 0.3,0.2 0.1,0.1 0.1,0.2 0.1,0.4 0,0.1 0,0.2 -0.1,0.3 -0.1,0.1 -0.2,0.2 -0.3,0.2 h -3.2 c -0.1,0 -0.3,0 -0.4,-0.1 -0.2,-0.1 -0.2,-0.2 -0.2,-0.3 z"
           id="path811" />
        <path
           inkscape:connector-curvature="0"
           d="m 1007.8,697.4 c 0,-0.1 0.1,-0.2 0.2,-0.3 0.2,-0.1 0.3,-0.1 0.5,-0.1 0.2,0 0.4,0.1 0.4,0.2 l 1.4,4.8 1.4,-4.8 c 0,-0.2 0.2,-0.2 0.4,-0.2 0.2,0 0.3,0 0.5,0.1 0.2,0.1 0.2,0.2 0.2,0.3 0,0 0,0 0,0.1 l -1.7,5.6 c 0,0.1 -0.1,0.2 -0.3,0.3 -0.2,0.1 -0.3,0.1 -0.5,0.1 -0.4,0 -0.7,-0.1 -0.7,-0.4 l -1.8,-5.7 c 0,0.1 0,0 0,0 z"
           id="path813" />
        <path
           inkscape:connector-curvature="0"
           d="m 1014,703.1 v -5.8 c 0,-0.1 0.1,-0.2 0.2,-0.3 0.1,-0.1 0.2,-0.1 0.4,-0.1 h 3.2 c 0.1,0 0.2,0.1 0.3,0.2 0.1,0.1 0.1,0.2 0.1,0.3 0,0.1 0,0.3 -0.1,0.4 -0.1,0.1 -0.2,0.2 -0.3,0.2 h -2.5 v 1.8 h 1.4 c 0.1,0 0.2,0 0.3,0.1 0.1,0.1 0.1,0.2 0.1,0.3 0,0.1 0,0.2 -0.1,0.3 -0.1,0.1 -0.2,0.1 -0.3,0.1 h -1.4 v 1.8 h 2.5 c 0.1,0 0.2,0.1 0.3,0.2 0.1,0.1 0.1,0.2 0.1,0.4 0,0.1 0,0.2 -0.1,0.3 -0.1,0.1 -0.2,0.2 -0.3,0.2 h -3.2 c -0.1,0 -0.3,0 -0.4,-0.1 -0.1,-0.1 -0.2,-0.2 -0.2,-0.3 z m 1.3,-7.3 c 0,-0.1 0.1,-0.2 0.2,-0.3 l 1.2,-0.6 c 0.1,0 0.1,0 0.1,0 0.1,0 0.2,0 0.2,0.1 0.1,0.1 0.1,0.2 0.1,0.3 0,0.1 -0.1,0.2 -0.2,0.3 l -1.2,0.6 c -0.1,0 -0.1,0 -0.1,0 -0.1,0 -0.2,0 -0.2,-0.1 0,-0.1 -0.1,-0.2 -0.1,-0.3 z"
           id="path815" />
        <path
           inkscape:connector-curvature="0"
           d="m 1019.5,703.1 v -5.8 c 0,-0.1 0.1,-0.2 0.2,-0.3 0.1,-0.1 0.2,-0.1 0.4,-0.1 0.2,0 0.3,0 0.4,0.1 0.1,0.1 0.2,0.1 0.2,0.3 v 5.1 h 2.2 c 0.1,0 0.2,0.1 0.3,0.2 0.1,0.1 0.1,0.2 0.1,0.4 0,0.2 0,0.3 -0.1,0.4 -0.1,0.1 -0.1,0.2 -0.3,0.2 h -2.8 c -0.1,0 -0.3,0 -0.4,-0.1 -0.2,-0.2 -0.2,-0.3 -0.2,-0.4 z"
           id="path817" />
        <path
           inkscape:connector-curvature="0"
           d="M 1024.3,701.5 V 699 c 0,-0.7 0.2,-1.2 0.6,-1.5 0.4,-0.3 0.9,-0.5 1.5,-0.5 0.6,0 1.1,0.2 1.5,0.5 0.4,0.3 0.6,0.8 0.6,1.5 v 2.5 c 0,0.7 -0.2,1.2 -0.6,1.5 -0.4,0.3 -0.9,0.5 -1.5,0.5 -0.6,0 -1.1,-0.2 -1.5,-0.5 -0.4,-0.3 -0.6,-0.8 -0.6,-1.5 z m 1.2,0 c 0,0.7 0.3,1 0.9,1 0.6,0 0.9,-0.3 0.9,-1 V 699 c 0,-0.7 -0.3,-1 -0.9,-1 -0.6,0 -0.9,0.3 -0.9,1 v 2.5 z"
           id="path819" />
        <path
           inkscape:connector-curvature="0"
           d="M 1032.6,701.5 V 699 c 0,-0.7 0.2,-1.2 0.6,-1.5 0.4,-0.3 0.9,-0.5 1.5,-0.5 0.6,0 1.1,0.2 1.5,0.5 0.4,0.3 0.6,0.7 0.6,1.2 0,0.2 0,0.4 -0.1,0.5 -0.1,0.1 -0.2,0.1 -0.4,0.1 -0.4,0 -0.6,-0.1 -0.6,-0.4 0,-0.1 0,-0.1 0,-0.2 0,-0.1 0,-0.1 -0.1,-0.2 0,-0.1 -0.1,-0.2 -0.1,-0.2 -0.1,-0.1 -0.1,-0.1 -0.3,-0.2 -0.1,0 -0.3,-0.1 -0.4,-0.1 -0.6,0 -0.9,0.3 -0.9,1 v 2.5 c 0,0.7 0.3,1 1,1 0.2,0 0.3,0 0.5,-0.1 0.1,-0.1 0.2,-0.1 0.3,-0.3 0.1,-0.1 0.1,-0.2 0.1,-0.3 0,-0.1 0,-0.2 0,-0.3 0,-0.2 0.2,-0.4 0.6,-0.4 0.2,0 0.4,0 0.4,0.1 0.1,0.1 0.1,0.2 0.1,0.5 0,0.5 -0.2,1 -0.6,1.3 -0.4,0.3 -0.9,0.5 -1.5,0.5 -0.6,0 -1.1,-0.2 -1.5,-0.5 -0.5,-0.3 -0.7,-0.8 -0.7,-1.5 z"
           id="path821" />
        <path
           inkscape:connector-curvature="0"
           d="m 1037.7,702.9 c 0,0 0,0 0,0 l 1.7,-5.7 c 0,-0.1 0.1,-0.2 0.3,-0.3 0.2,-0.1 0.3,-0.1 0.5,-0.1 0.2,0 0.3,0 0.5,0.1 0.2,0.1 0.2,0.2 0.3,0.3 l 1.7,5.6 c 0,0 0,0.1 0,0.1 0,0.1 -0.1,0.2 -0.2,0.3 -0.1,0.1 -0.3,0.1 -0.5,0.1 -0.2,0 -0.4,-0.1 -0.4,-0.2 l -0.3,-1.2 h -1.9 l -0.3,1.2 c 0,0.2 -0.2,0.2 -0.4,0.2 -0.2,0 -0.4,0 -0.6,-0.1 -0.3,0 -0.4,-0.1 -0.4,-0.3 z m 1.9,-1.8 h 1.5 l -0.8,-2.7 -0.7,2.7 z"
           id="path823" />
        <path
           inkscape:connector-curvature="0"
           d="m 1044.1,703.1 v -5.8 c 0,-0.1 0,-0.2 0.1,-0.2 0.1,0 0.2,-0.1 0.3,-0.1 h 1.8 c 1.4,0 2.1,0.6 2.1,1.9 0,0.5 -0.1,0.9 -0.3,1.2 -0.2,0.3 -0.5,0.5 -0.9,0.6 l 1.2,2.2 c 0,0 0,0.1 0,0.1 0,0.1 -0.1,0.3 -0.2,0.4 -0.2,0.1 -0.3,0.2 -0.5,0.2 -0.2,0 -0.3,-0.1 -0.4,-0.3 l -1.3,-2.5 h -0.7 v 2.3 c 0,0.1 -0.1,0.2 -0.2,0.3 -0.1,0.1 -0.2,0.1 -0.4,0.1 -0.2,0 -0.3,0 -0.4,-0.1 -0.1,-0.1 -0.2,-0.2 -0.2,-0.3 z m 1.2,-3.3 h 1 c 0.6,0 1,-0.3 1,-0.9 0,-0.6 -0.3,-1 -1,-1 h -1 v 1.9 z"
           id="path825" />
        <path
           inkscape:connector-curvature="0"
           d="M 1049.9,701.5 V 699 c 0,-0.7 0.2,-1.2 0.6,-1.5 0.4,-0.3 0.9,-0.5 1.5,-0.5 0.6,0 1.1,0.2 1.5,0.5 0.4,0.3 0.6,0.7 0.6,1.2 0,0.2 0,0.4 -0.1,0.4 -0.1,0 -0.2,0.1 -0.4,0.1 -0.4,0 -0.6,-0.1 -0.6,-0.4 0,-0.3 -0.1,-0.5 -0.2,-0.6 -0.1,-0.2 -0.4,-0.2 -0.7,-0.2 -0.6,0 -0.9,0.3 -0.9,1 v 2.5 c 0,0.7 0.3,1 0.9,1 0.3,0 0.5,-0.1 0.7,-0.3 0.2,-0.2 0.2,-0.4 0.2,-0.8 v -0.5 h -0.7 c -0.1,0 -0.2,0 -0.3,-0.1 -0.1,-0.1 -0.1,-0.2 -0.1,-0.3 0,-0.1 0,-0.2 0.1,-0.3 0.1,-0.1 0.2,-0.1 0.3,-0.1 h 1.5 c 0.1,0 0.2,0 0.3,0.1 0.1,0.1 0.1,0.2 0.1,0.3 v 1.1 c 0,0.7 -0.2,1.2 -0.6,1.5 -0.4,0.3 -0.9,0.5 -1.5,0.5 -0.6,0 -1.1,-0.2 -1.5,-0.5 -0.6,-0.4 -0.7,-0.9 -0.7,-1.6 z"
           id="path827" />
        <path
           inkscape:connector-curvature="0"
           d="M 1055.6,701.5 V 699 c 0,-0.7 0.2,-1.2 0.6,-1.5 0.4,-0.3 0.9,-0.5 1.5,-0.5 0.6,0 1.1,0.2 1.5,0.5 0.4,0.3 0.6,0.8 0.6,1.5 v 2.5 c 0,0.7 -0.2,1.2 -0.6,1.5 -0.4,0.3 -0.9,0.5 -1.5,0.5 -0.6,0 -1.1,-0.2 -1.5,-0.5 -0.4,-0.3 -0.6,-0.8 -0.6,-1.5 z m 1.2,0 c 0,0.7 0.3,1 0.9,1 0.6,0 0.9,-0.3 0.9,-1 V 699 c 0,-0.7 -0.3,-1 -0.9,-1 -0.6,0 -0.9,0.3 -0.9,1 v 2.5 z"
           id="path829" />
        <path
           inkscape:connector-curvature="0"
           d="m 1064,703.1 v -5.8 c 0,-0.1 0,-0.2 0.1,-0.2 0.1,0 0.2,-0.1 0.4,-0.1 h 1.6 c 0.6,0 1.1,0.2 1.5,0.5 0.4,0.3 0.6,0.8 0.6,1.5 v 2.4 c 0,0.7 -0.2,1.2 -0.6,1.5 -0.4,0.3 -0.9,0.5 -1.5,0.5 h -1.6 c -0.1,0 -0.3,0 -0.4,-0.1 -0.1,-0.1 -0.1,-0.1 -0.1,-0.2 z m 1.1,-0.7 h 0.9 c 0.6,0 0.9,-0.3 0.9,-1 V 699 c 0,-0.7 -0.3,-1 -0.9,-1 h -0.9 v 4.4 z"
           id="path831" />
        <path
           inkscape:connector-curvature="0"
           d="m 1069.3,702.9 c 0,0 0,0 0,0 l 1.7,-5.7 c 0,-0.1 0.1,-0.2 0.3,-0.3 0.2,-0.1 0.3,-0.1 0.5,-0.1 0.2,0 0.3,0 0.5,0.1 0.2,0.1 0.2,0.2 0.3,0.3 l 1.7,5.6 c 0,0 0,0.1 0,0.1 0,0.1 -0.1,0.2 -0.2,0.3 -0.1,0.1 -0.3,0.1 -0.5,0.1 -0.2,0 -0.4,-0.1 -0.4,-0.2 l -0.3,-1.2 h -1.9 l -0.3,1.2 c 0,0.2 -0.2,0.2 -0.4,0.2 -0.2,0 -0.4,0 -0.6,-0.1 -0.4,0 -0.4,-0.1 -0.4,-0.3 z m 1.8,-1.8 h 1.5 l -0.8,-2.7 -0.7,2.7 z"
           id="path833" />
        <path
           inkscape:connector-curvature="0"
           d="m 1075.7,703.1 v -5.8 c 0,-0.1 0.1,-0.2 0.2,-0.3 0.1,-0.1 0.2,-0.1 0.4,-0.1 0.2,0 0.4,0 0.5,0.1 0.1,0.1 0.2,0.2 0.4,0.5 l 1.7,3.3 v -3.6 c 0,-0.1 0.1,-0.2 0.2,-0.3 0.1,-0.1 0.2,-0.1 0.4,-0.1 0.2,0 0.3,0 0.4,0.1 0.1,0.1 0.2,0.1 0.2,0.3 v 5.8 c 0,0.1 -0.1,0.2 -0.2,0.3 -0.1,0.1 -0.3,0.1 -0.4,0.1 -0.3,0 -0.5,-0.1 -0.7,-0.4 l -1.9,-3.6 v 3.6 c 0,0.1 -0.1,0.2 -0.2,0.3 -0.1,0.1 -0.3,0.1 -0.4,0.1 -0.2,0 -0.3,0 -0.4,-0.1 -0.2,0 -0.2,-0.1 -0.2,-0.2 z"
           id="path835" />
        <path
           inkscape:connector-curvature="0"
           d="m 1081.5,702.4 c 0,-0.1 0.1,-0.3 0.2,-0.4 0.1,-0.1 0.2,-0.2 0.4,-0.2 0.1,0 0.2,0 0.3,0.1 0.1,0.1 0.2,0.2 0.3,0.2 0.1,0.1 0.2,0.2 0.4,0.2 0.2,0.1 0.4,0.1 0.6,0.1 0.3,0 0.5,-0.1 0.7,-0.2 0.2,-0.1 0.3,-0.3 0.3,-0.6 0,-0.2 -0.1,-0.3 -0.2,-0.5 -0.1,-0.1 -0.2,-0.3 -0.4,-0.3 -0.2,0 -0.4,-0.2 -0.6,-0.3 -0.2,-0.1 -0.4,-0.2 -0.6,-0.3 -0.2,-0.1 -0.4,-0.2 -0.6,-0.4 -0.2,-0.1 -0.3,-0.3 -0.4,-0.5 -0.1,-0.2 -0.2,-0.5 -0.2,-0.8 0,-0.3 0.1,-0.6 0.2,-0.8 0.1,-0.2 0.3,-0.4 0.5,-0.6 0.2,-0.2 0.4,-0.2 0.7,-0.3 0.2,-0.1 0.5,-0.1 0.8,-0.1 0.2,0 0.3,0 0.5,0 0.2,0 0.4,0.1 0.5,0.1 0.2,0 0.4,0.1 0.5,0.2 0.1,0.1 0.2,0.2 0.2,0.4 0,0.1 0,0.3 -0.1,0.4 -0.1,0.1 -0.2,0.2 -0.3,0.2 -0.1,0 -0.2,-0.1 -0.4,-0.2 -0.2,-0.1 -0.5,-0.2 -0.8,-0.2 -0.3,0 -0.6,0.1 -0.7,0.2 -0.2,0.1 -0.3,0.3 -0.3,0.5 0,0.2 0.1,0.3 0.2,0.5 0.1,0.2 0.3,0.2 0.5,0.3 0.2,0.1 0.4,0.2 0.7,0.3 0.2,0.1 0.5,0.3 0.7,0.4 0.2,0.1 0.4,0.3 0.5,0.6 0.1,0.3 0.2,0.6 0.2,0.9 0,0.6 -0.2,1.1 -0.6,1.4 -0.4,0.3 -0.9,0.5 -1.5,0.5 -0.6,0 -1,-0.1 -1.5,-0.3 -0.5,0 -0.7,-0.2 -0.7,-0.5 z"
           id="path837" />
        <path
           inkscape:connector-curvature="0"
           d="m 936.4,717.1 v -5.8 c 0,-0.1 0.1,-0.2 0.2,-0.3 0.1,-0.1 0.2,-0.1 0.4,-0.1 0.2,0 0.3,0 0.4,0.1 0.1,0.1 0.2,0.1 0.2,0.3 v 5.1 h 2.2 c 0.1,0 0.2,0.1 0.3,0.2 0.1,0.1 0.1,0.2 0.1,0.4 0,0.2 0,0.3 -0.1,0.4 -0.1,0.1 -0.1,0.2 -0.3,0.2 H 937 c -0.1,0 -0.3,0 -0.4,-0.1 -0.2,-0.2 -0.2,-0.3 -0.2,-0.4 z"
           id="path839" />
        <path
           inkscape:connector-curvature="0"
           d="m 940.8,716.9 c 0,0 0,0 0,0 l 1.7,-5.7 c 0,-0.1 0.1,-0.2 0.3,-0.3 0.2,-0.1 0.3,-0.1 0.5,-0.1 0.2,0 0.3,0 0.5,0.1 0.2,0.1 0.2,0.2 0.3,0.3 l 1.7,5.6 c 0,0 0,0.1 0,0.1 0,0.1 -0.1,0.2 -0.2,0.3 -0.1,0.1 -0.3,0.1 -0.5,0.1 -0.2,0 -0.4,-0.1 -0.4,-0.2 l -0.3,-1.2 h -1.9 l -0.3,1.2 c 0,0.2 -0.2,0.2 -0.4,0.2 -0.2,0 -0.4,0 -0.6,-0.1 -0.3,0 -0.4,-0.1 -0.4,-0.3 z m 1.8,-1.8 h 1.5 l -0.8,-2.7 -0.7,2.7 z"
           id="path841" />
        <path
           inkscape:connector-curvature="0"
           d="m 949.7,717.1 v -5.6 c 0,-0.2 0.1,-0.3 0.2,-0.4 0.1,-0.1 0.2,-0.1 0.4,-0.1 0.2,0 0.4,0 0.5,0.1 0.1,0.1 0.2,0.2 0.4,0.5 l 1.1,2 1.1,-2 c 0.1,-0.3 0.3,-0.4 0.4,-0.5 0.1,-0.1 0.3,-0.1 0.5,-0.1 0.2,0 0.3,0 0.4,0.1 0.1,0.1 0.2,0.2 0.2,0.4 v 5.6 c 0,0.1 -0.1,0.2 -0.2,0.3 -0.1,0.1 -0.3,0.1 -0.4,0.1 -0.2,0 -0.3,0 -0.4,-0.1 -0.1,-0.1 -0.2,-0.2 -0.2,-0.3 v -3.8 l -1,1.9 c -0.1,0.2 -0.2,0.2 -0.4,0.2 -0.2,0 -0.3,-0.1 -0.4,-0.2 l -1,-1.9 v 3.9 c 0,0.1 -0.1,0.2 -0.2,0.3 -0.1,0.1 -0.3,0.1 -0.4,0.1 -0.2,0 -0.3,0 -0.4,-0.1 -0.1,-0.2 -0.2,-0.3 -0.2,-0.4 z"
           id="path843" />
        <path
           inkscape:connector-curvature="0"
           d="m 956.7,717.1 v -5.8 c 0,-0.1 0.1,-0.2 0.2,-0.3 0.1,-0.1 0.2,-0.1 0.4,-0.1 h 3.2 c 0.1,0 0.2,0.1 0.3,0.2 0.1,0.1 0.1,0.2 0.1,0.3 0,0.1 0,0.3 -0.1,0.4 -0.1,0.1 -0.2,0.2 -0.3,0.2 H 958 v 1.8 h 1.4 c 0.1,0 0.2,0 0.3,0.1 0.1,0.1 0.1,0.2 0.1,0.3 0,0.1 0,0.2 -0.1,0.3 -0.1,0.1 -0.2,0.1 -0.3,0.1 H 958 v 1.8 h 2.5 c 0.1,0 0.2,0.1 0.3,0.2 0.1,0.1 0.1,0.2 0.1,0.4 0,0.1 0,0.2 -0.1,0.3 -0.1,0.1 -0.2,0.2 -0.3,0.2 h -3.2 c -0.1,0 -0.3,0 -0.4,-0.1 -0.2,-0.1 -0.2,-0.2 -0.2,-0.3 z m 1.3,-7.3 c 0,-0.1 0.1,-0.2 0.2,-0.3 l 1.2,-0.6 c 0.1,0 0.1,0 0.1,0 0.1,0 0.2,0 0.2,0.1 0.1,0.1 0.1,0.2 0.1,0.3 0,0.1 -0.1,0.2 -0.2,0.3 l -1.2,0.6 c -0.1,0 -0.1,0 -0.1,0 -0.1,0 -0.2,0 -0.2,-0.1 -0.1,-0.1 -0.1,-0.2 -0.1,-0.3 z"
           id="path845" />
        <path
           inkscape:connector-curvature="0"
           d="m 961.7,711.4 c 0,-0.1 0,-0.2 0.1,-0.4 0.1,-0.1 0.2,-0.2 0.3,-0.2 h 3.8 c 0.1,0 0.2,0.1 0.3,0.2 0.1,0.1 0.1,0.2 0.1,0.4 0,0.1 0,0.3 -0.1,0.4 -0.1,0.1 -0.2,0.2 -0.3,0.2 h -1.3 v 5.1 c 0,0.1 -0.1,0.2 -0.2,0.3 -0.1,0.1 -0.3,0.1 -0.4,0.1 -0.2,0 -0.3,0 -0.4,-0.1 -0.1,-0.1 -0.2,-0.2 -0.2,-0.3 V 712 H 962 c -0.1,0 -0.2,0 -0.3,-0.1 0,-0.2 0,-0.3 0,-0.5 z"
           id="path847" />
        <path
           inkscape:connector-curvature="0"
           d="m 967.5,717.1 v -5.8 c 0,-0.1 0,-0.2 0.1,-0.2 0.1,0 0.2,-0.1 0.3,-0.1 h 1.8 c 1.4,0 2.1,0.6 2.1,1.9 0,0.5 -0.1,0.9 -0.3,1.2 -0.2,0.3 -0.5,0.5 -0.9,0.6 l 1.2,2.2 c 0,0 0,0.1 0,0.1 0,0.1 -0.1,0.3 -0.2,0.4 -0.2,0.1 -0.3,0.2 -0.5,0.2 -0.2,0 -0.3,-0.1 -0.4,-0.3 l -1.3,-2.5 h -0.7 v 2.3 c 0,0.1 -0.1,0.2 -0.2,0.3 -0.1,0.1 -0.2,0.1 -0.4,0.1 -0.2,0 -0.3,0 -0.4,-0.1 -0.1,-0.1 -0.2,-0.2 -0.2,-0.3 z m 1.2,-3.2 h 1 c 0.6,0 1,-0.3 1,-0.9 0,-0.6 -0.3,-1 -1,-1 h -1 v 1.9 z"
           id="path849" />
        <path
           inkscape:connector-curvature="0"
           d="M 973.2,715.5 V 713 c 0,-0.7 0.2,-1.2 0.6,-1.5 0.4,-0.3 0.9,-0.5 1.5,-0.5 0.6,0 1.1,0.2 1.5,0.5 0.4,0.3 0.6,0.8 0.6,1.5 v 2.5 c 0,0.7 -0.2,1.2 -0.6,1.5 -0.4,0.3 -0.9,0.5 -1.5,0.5 -0.6,0 -1.1,-0.2 -1.5,-0.5 -0.4,-0.3 -0.6,-0.8 -0.6,-1.5 z m 1.2,0 c 0,0.7 0.3,1 0.9,1 0.6,0 0.9,-0.3 0.9,-1 V 713 c 0,-0.7 -0.3,-1 -0.9,-1 -0.6,0 -0.9,0.3 -0.9,1 v 2.5 z"
           id="path851" />
        <path
           inkscape:connector-curvature="0"
           d="m 979.1,717.1 v -5.8 c 0,-0.1 0,-0.2 0.1,-0.2 0.1,-0.1 0.2,-0.1 0.3,-0.1 h 1.8 c 0.6,0 1.1,0.2 1.5,0.5 0.4,0.3 0.6,0.8 0.6,1.5 v 0.1 c 0,0.7 -0.2,1.2 -0.6,1.5 -0.4,0.3 -0.9,0.5 -1.5,0.5 h -1 v 2.1 c 0,0.1 -0.1,0.2 -0.2,0.3 -0.1,0.1 -0.3,0.1 -0.4,0.1 -0.2,0 -0.3,0 -0.4,-0.1 -0.1,-0.2 -0.2,-0.3 -0.2,-0.4 z m 1.2,-3 h 1 c 0.3,0 0.5,-0.1 0.7,-0.3 0.2,-0.2 0.2,-0.4 0.2,-0.8 v 0 c 0,-0.3 -0.1,-0.6 -0.2,-0.8 -0.2,-0.2 -0.4,-0.3 -0.7,-0.3 h -1 v 2.2 z"
           id="path853" />
        <path
           inkscape:connector-curvature="0"
           d="M 984.7,715.5 V 713 c 0,-0.7 0.2,-1.2 0.6,-1.5 0.4,-0.3 0.9,-0.5 1.5,-0.5 0.6,0 1.1,0.2 1.5,0.5 0.4,0.3 0.6,0.8 0.6,1.5 v 2.5 c 0,0.7 -0.2,1.2 -0.6,1.5 -0.4,0.3 -0.9,0.5 -1.5,0.5 -0.6,0 -1.1,-0.2 -1.5,-0.5 -0.4,-0.3 -0.6,-0.8 -0.6,-1.5 z m 1.2,0 c 0,0.7 0.3,1 0.9,1 0.6,0 0.9,-0.3 0.9,-1 V 713 c 0,-0.7 -0.3,-1 -0.9,-1 -0.6,0 -0.9,0.3 -0.9,1 v 2.5 z"
           id="path855" />
        <path
           inkscape:connector-curvature="0"
           d="m 990.6,717.1 v -5.8 c 0,-0.1 0.1,-0.2 0.2,-0.3 0.1,-0.1 0.2,-0.1 0.4,-0.1 0.2,0 0.3,0 0.4,0.1 0.1,0.1 0.2,0.1 0.2,0.3 v 5.1 h 2.2 c 0.1,0 0.2,0.1 0.3,0.2 0.1,0.1 0.1,0.2 0.1,0.4 0,0.2 0,0.3 -0.1,0.4 -0.1,0.1 -0.1,0.2 -0.3,0.2 h -2.8 c -0.1,0 -0.3,0 -0.4,-0.1 -0.2,-0.2 -0.2,-0.3 -0.2,-0.4 z"
           id="path857" />
        <path
           inkscape:connector-curvature="0"
           d="m 995.6,717.1 v -5.8 c 0,-0.1 0.1,-0.2 0.2,-0.3 0.1,-0.1 0.2,-0.1 0.4,-0.1 h 3.2 c 0.1,0 0.2,0.1 0.3,0.2 0.1,0.1 0.1,0.2 0.1,0.3 0,0.1 0,0.3 -0.1,0.4 -0.1,0.1 -0.2,0.2 -0.3,0.2 h -2.5 v 1.8 h 1.4 c 0.1,0 0.2,0 0.3,0.1 0.1,0.1 0.1,0.2 0.1,0.3 0,0.1 0,0.2 -0.1,0.3 -0.1,0.1 -0.2,0.1 -0.3,0.1 h -1.4 v 1.8 h 2.5 c 0.1,0 0.2,0.1 0.3,0.2 0.1,0.1 0.1,0.2 0.1,0.4 0,0.1 0,0.2 -0.1,0.3 -0.1,0.1 -0.2,0.2 -0.3,0.2 h -3.2 c -0.1,0 -0.3,0 -0.4,-0.1 -0.1,-0.1 -0.2,-0.2 -0.2,-0.3 z"
           id="path859" />
        <path
           inkscape:connector-curvature="0"
           d="m 1003.5,717.1 v -5.8 c 0,-0.1 0.1,-0.2 0.2,-0.3 0.1,-0.1 0.2,-0.1 0.4,-0.1 0.2,0 0.4,0 0.5,0.1 0.1,0.1 0.2,0.2 0.4,0.5 l 1.7,3.3 v -3.6 c 0,-0.1 0.1,-0.2 0.2,-0.3 0.1,-0.1 0.2,-0.1 0.4,-0.1 0.2,0 0.3,0 0.4,0.1 0.1,0.1 0.2,0.1 0.2,0.3 v 5.8 c 0,0.1 -0.1,0.2 -0.2,0.3 -0.1,0.1 -0.3,0.1 -0.4,0.1 -0.3,0 -0.5,-0.1 -0.7,-0.4 l -1.9,-3.6 v 3.6 c 0,0.1 -0.1,0.2 -0.2,0.3 -0.1,0.1 -0.3,0.1 -0.4,0.1 -0.2,0 -0.3,0 -0.4,-0.1 -0.1,0 -0.2,-0.1 -0.2,-0.2 z"
           id="path861" />
        <path
           inkscape:connector-curvature="0"
           d="m 1009,716.9 c 0,0 0.1,0 0,0 l 1.7,-5.7 c 0,-0.1 0.1,-0.2 0.3,-0.3 0.2,-0.1 0.3,-0.1 0.5,-0.1 0.2,0 0.3,0 0.5,0.1 0.2,0.1 0.2,0.2 0.3,0.3 l 1.7,5.6 c 0,0 0,0.1 0,0.1 0,0.1 -0.1,0.2 -0.2,0.3 -0.1,0.1 -0.3,0.1 -0.5,0.1 -0.2,0 -0.4,-0.1 -0.4,-0.2 l -0.3,-1.2 h -1.9 l -0.3,1.2 c 0,0.2 -0.2,0.2 -0.4,0.2 -0.2,0 -0.4,0 -0.6,-0.1 -0.3,0 -0.4,-0.1 -0.4,-0.3 z m 1.9,-1.8 h 1.5 l -0.8,-2.7 -0.7,2.7 z"
           id="path863" />
        <path
           inkscape:connector-curvature="0"
           d="m 1015.5,717.1 v -5.8 c 0,-0.1 0.1,-0.2 0.2,-0.3 0.1,-0.1 0.2,-0.1 0.4,-0.1 0.2,0 0.4,0 0.5,0.1 0.1,0.1 0.2,0.2 0.4,0.5 l 1.7,3.3 v -3.6 c 0,-0.1 0.1,-0.2 0.2,-0.3 0.1,-0.1 0.2,-0.1 0.4,-0.1 0.2,0 0.3,0 0.4,0.1 0.1,0.1 0.2,0.1 0.2,0.3 v 5.8 c 0,0.1 -0.1,0.2 -0.2,0.3 -0.1,0.1 -0.3,0.1 -0.4,0.1 -0.3,0 -0.5,-0.1 -0.7,-0.4 l -1.9,-3.6 v 3.6 c 0,0.1 -0.1,0.2 -0.2,0.3 -0.1,0.1 -0.3,0.1 -0.4,0.1 -0.2,0 -0.3,0 -0.4,-0.1 -0.2,0 -0.2,-0.1 -0.2,-0.2 z"
           id="path865" />
        <path
           inkscape:connector-curvature="0"
           d="m 1021.1,711.4 c 0,-0.1 0,-0.2 0.1,-0.4 0.1,-0.1 0.2,-0.2 0.3,-0.2 h 3.8 c 0.1,0 0.2,0.1 0.3,0.2 0.1,0.1 0.1,0.2 0.1,0.4 0,0.1 0,0.3 -0.1,0.4 -0.1,0.1 -0.2,0.2 -0.3,0.2 h -1.3 v 5.1 c 0,0.1 -0.1,0.2 -0.2,0.3 -0.1,0.1 -0.3,0.1 -0.4,0.1 -0.2,0 -0.3,0 -0.4,-0.1 -0.1,-0.1 -0.2,-0.2 -0.2,-0.3 V 712 h -1.3 c -0.1,0 -0.2,0 -0.3,-0.1 0,-0.2 -0.1,-0.3 -0.1,-0.5 z"
           id="path867" />
        <path
           inkscape:connector-curvature="0"
           d="m 1025.9,716.9 c 0,0 0,0 0,0 l 1.7,-5.7 c 0,-0.1 0.1,-0.2 0.3,-0.3 0.2,-0.1 0.3,-0.1 0.5,-0.1 0.2,0 0.3,0 0.5,0.1 0.2,0.1 0.2,0.2 0.3,0.3 l 1.7,5.6 c 0,0 0,0.1 0,0.1 0,0.1 -0.1,0.2 -0.2,0.3 -0.1,0.1 -0.3,0.1 -0.5,0.1 -0.2,0 -0.4,-0.1 -0.4,-0.2 l -0.3,-1.2 h -1.9 l -0.3,1.2 c 0,0.2 -0.2,0.2 -0.4,0.2 -0.2,0 -0.4,0 -0.6,-0.1 -0.3,0 -0.4,-0.1 -0.4,-0.3 z m 1.8,-1.8 h 1.5 l -0.8,-2.7 -0.7,2.7 z"
           id="path869" />
        <path
           inkscape:connector-curvature="0"
           d="m 1032.3,717.1 v -5.8 c 0,-0.1 0.1,-0.2 0.2,-0.3 0.1,-0.1 0.2,-0.1 0.4,-0.1 0.2,0 0.3,0 0.4,0.1 0.1,0.1 0.2,0.1 0.2,0.3 v 5.8 c 0,0.1 -0.1,0.2 -0.2,0.3 -0.1,0.1 -0.3,0.1 -0.4,0.1 -0.2,0 -0.3,0 -0.4,-0.1 -0.1,-0.1 -0.2,-0.2 -0.2,-0.3 z"
           id="path871" />
        <path
           inkscape:connector-curvature="0"
           d="m 1034.9,716.4 c 0,-0.1 0.1,-0.3 0.2,-0.4 0.1,-0.1 0.2,-0.2 0.4,-0.2 0.1,0 0.2,0 0.3,0.1 0.1,0.1 0.2,0.2 0.3,0.2 0.1,0.1 0.2,0.2 0.4,0.2 0.2,0.1 0.4,0.1 0.6,0.1 0.3,0 0.5,-0.1 0.7,-0.2 0.2,-0.1 0.3,-0.3 0.3,-0.6 0,-0.2 -0.1,-0.3 -0.2,-0.5 -0.1,-0.1 -0.2,-0.3 -0.4,-0.3 -0.2,0 -0.4,-0.2 -0.6,-0.3 -0.2,-0.1 -0.4,-0.2 -0.6,-0.3 -0.2,-0.1 -0.4,-0.2 -0.6,-0.4 -0.2,-0.1 -0.3,-0.3 -0.4,-0.5 -0.1,-0.2 -0.2,-0.5 -0.2,-0.8 0,-0.3 0.1,-0.6 0.2,-0.8 0.1,-0.2 0.3,-0.4 0.5,-0.6 0.2,-0.2 0.4,-0.2 0.7,-0.3 0.2,-0.1 0.5,-0.1 0.8,-0.1 0.2,0 0.3,0 0.5,0 0.2,0 0.4,0.1 0.5,0.1 0.2,0 0.4,0.1 0.5,0.2 0.1,0.1 0.2,0.2 0.2,0.4 0,0.1 0,0.3 -0.1,0.4 -0.1,0.1 -0.2,0.2 -0.3,0.2 -0.1,0 -0.2,-0.1 -0.4,-0.2 -0.2,-0.1 -0.5,-0.2 -0.8,-0.2 -0.3,0 -0.6,0.1 -0.7,0.2 -0.2,0.1 -0.3,0.3 -0.3,0.5 0,0.2 0.1,0.3 0.2,0.5 0.1,0.2 0.3,0.2 0.5,0.3 0.2,0.1 0.4,0.2 0.7,0.3 0.2,0.1 0.5,0.3 0.7,0.4 0.2,0.1 0.4,0.3 0.5,0.6 0.1,0.3 0.2,0.6 0.2,0.9 0,0.6 -0.2,1.1 -0.6,1.4 -0.4,0.3 -0.9,0.5 -1.5,0.5 -0.6,0 -1,-0.1 -1.5,-0.3 -0.5,0.1 -0.7,-0.2 -0.7,-0.5 z"
           id="path873" />
        <path
           inkscape:connector-curvature="0"
           d="m 1040.6,717.1 v -5.8 c 0,-0.1 0.1,-0.2 0.2,-0.3 0.1,-0.1 0.2,-0.1 0.4,-0.1 h 3.2 c 0.1,0 0.2,0.1 0.3,0.2 0.1,0.1 0.1,0.2 0.1,0.3 0,0.1 0,0.3 -0.1,0.4 -0.1,0.1 -0.2,0.2 -0.3,0.2 h -2.5 v 1.8 h 1.4 c 0.1,0 0.2,0 0.3,0.1 0.1,0.1 0.1,0.2 0.1,0.3 0,0.1 0,0.2 -0.1,0.3 -0.1,0.1 -0.2,0.1 -0.3,0.1 h -1.4 v 1.8 h 2.5 c 0.1,0 0.2,0.1 0.3,0.2 0.1,0.1 0.1,0.2 0.1,0.4 0,0.1 0,0.2 -0.1,0.3 -0.1,0.1 -0.2,0.2 -0.3,0.2 h -3.2 c -0.1,0 -0.3,0 -0.4,-0.1 -0.1,-0.1 -0.2,-0.2 -0.2,-0.3 z"
           id="path875" />
      </g>
    </g>
    <g
       transform="translate(-667.89099,-85.408631)"
       id="g877">
      <path
         style="fill:#5bba47"
         inkscape:connector-curvature="0"
         d="m 1069.4,571.7 0.8,22.3 h -11.9 c 0,0 -1.9,-6.2 -6.1,-9.2 -4.2,-2.9 -15,-4.8 -17.2,-3.4 -2.2,1.5 -11.2,12.5 -11.2,12.5 h -16.6 l -0.9,-25.8 63.1,3.6 z"
         id="path879" />
      <g
         id="g881">
        <path
           style="fill:none;stroke:#010101;stroke-width:11.33860016;stroke-miterlimit:10"
           inkscape:connector-curvature="0"
           stroke-miterlimit="10"
           d="M 998.5,587.8"
           id="path883" />
        <circle
           style="fill:#010101"
           sodipodi:ry="1.7"
           sodipodi:rx="1.7"
           sodipodi:cy="544.79999"
           sodipodi:cx="992.20001"
           d="m 993.90001,544.79999 c 0,0.93888 -0.76111,1.7 -1.7,1.7 -0.93888,0 -1.7,-0.76112 -1.7,-1.7 0,-0.93889 0.76112,-1.7 1.7,-1.7 0.93889,0 1.7,0.76111 1.7,1.7 z"
           cx="992.20001"
           cy="544.79999"
           r="1.7"
           id="circle885" />
        <circle
           style="fill:#010101"
           sodipodi:ry="1.3"
           sodipodi:rx="1.3"
           sodipodi:cy="542.29999"
           sodipodi:cx="1065.1"
           d="m 1066.4,542.29999 c 0,0.71797 -0.5821,1.3 -1.3,1.3 -0.718,0 -1.3,-0.58203 -1.3,-1.3 0,-0.71797 0.582,-1.3 1.3,-1.3 0.7179,0 1.3,0.58203 1.3,1.3 z"
           cx="1065.1"
           cy="542.29999"
           r="1.3"
           id="circle887" />
        <path
           style="fill:none"
           inkscape:connector-curvature="0"
           d="m 1055.3,594.6 c -0.1,-0.5 -0.2,-1 -0.4,-1.5 -1.8,-6.1 -7.5,-10.6 -14.2,-10.6 -6.7,0 -12.3,4.4 -14.2,10.5 -0.1,0.3 -0.2,0.6 -0.2,0.9 0,0.2 -0.1,0.4 -0.1,0.6 -0.1,0.5 -0.2,1 -0.2,1.5 0,0.3 0,0.6 -0.1,0.9 0,0.2 0,0.3 0,0.5 0,8.2 6.7,14.8 14.8,14.8 8.2,0 14.8,-6.7 14.8,-14.8 0,-0.4 0,-0.8 -0.1,-1.2 0.1,-0.6 0,-1.1 -0.1,-1.6 z"
           id="path889" />
        <circle
           style="fill:#010101"
           sodipodi:ry="2.7"
           sodipodi:rx="2.7"
           sodipodi:cy="596.70001"
           sodipodi:cx="1040.9"
           d="m 1043.6,596.70001 c 0,1.49117 -1.2088,2.7 -2.7,2.7 -1.4911,0 -2.7,-1.20883 -2.7,-2.7 0,-1.49117 1.2089,-2.7 2.7,-2.7 1.4912,0 2.7,1.20883 2.7,2.7 z"
           cx="1040.9"
           cy="596.70001"
           r="2.7"
           id="circle891" />
        <path
           style="fill:none"
           inkscape:connector-curvature="0"
           d="m 1048.1,571.2 -16.9,-1.1 -10.3,-0.7 -3.3,-0.2 -8.9,-0.6 -0.5,0 0,2.7 0,21.6 14.6,0.1 c 2,-8.1 9.2,-14.1 17.9,-14.1 8.7,0 16,6.1 17.9,14.2 l 1.6,0 9.1,0 c 0,0 0,0 0,0 v -20.6 l -7,-0.4 -2.4,-0.2 -11.8,-0.7 z"
           id="path893" />
        <path
           style="fill:none"
           inkscape:connector-curvature="0"
           d="m 1064.8,554.6 c -0.4,-2.5 1.7,-4.7 3.4,-5.4 0.5,-0.2 1.1,-0.1 1.6,0.3 0.9,0.8 3.6,2.8 8.8,2.8 0.8,0 1.7,-0.1 2.6,-0.2 3,-2.1 6.8,-6.7 3.8,-12.2 -0.2,-0.3 -0.4,-0.7 -0.6,-1.1 -1.9,-3.4 -5.1,-9.1 -1.9,-13.9 3,-4.6 5.3,-4.1 7.3,-3.1 -0.1,-0.2 -0.2,-0.5 -0.2,-0.7 -0.1,-0.6 0,-1.2 0.2,-1.8 -0.7,-0.1 -1.9,-0.1 -3.3,0.3 -2,0.5 -4.8,1.8 -6.6,5 -2,3.4 -0.7,6.7 0.7,10.2 0.5,1.3 1.1,2.7 1.4,4.1 0.8,3.5 0.4,5.8 -1.1,7.1 -1.5,1.2 -3.7,1.1 -6.5,-0.2 -1.9,-0.9 -2.4,-2.9 -3.1,-5 -1,-3.4 -2,-6.9 -8,-7.1 -0.5,0 -0.9,-0.3 -1.2,-0.7 -0.3,-0.4 -0.3,-0.9 -0.1,-1.4 0.7,-1.7 0.8,-3 0.3,-3.9 -0.5,-1.1 -1.8,-1.9 -4,-2.5 -5.7,-1.6 -10.4,-1.5 -13.9,0.6 -2.8,1.6 -4.3,4.2 -4.7,5.8 -0.8,3.3 -1.8,8 -1.3,10.9 0.6,3 1.7,5.4 3,6.5 0.3,0.2 1.2,0.6 3.2,0.5 1.6,0 2.9,-0.3 3.2,-0.5 0.1,0 0.2,-0.1 0.2,-0.1 0.1,-2 0.8,-4.1 1,-4.7 0.3,-0.8 1.1,-1.2 1.9,-0.9 0.8,0.3 1.2,1.1 0.9,1.9 -0.7,1.9 -1.1,4.4 -0.7,5.3 0.8,0.4 2.4,2.1 5.7,4.1 5.3,3.4 9.4,3.3 10.8,3.2 -1,-0.5 -1.6,-1.1 -1.9,-1.7 -0.1,-0.1 -0.1,-0.3 -0.2,-0.4 0,0 -0.1,-0.1 -0.1,-0.1 -0.4,-0.2 -0.6,-0.6 -0.6,-1 z"
           id="path895" />
        <path
           style="fill:none"
           inkscape:connector-curvature="0"
           d="m 1055.3,594.6 c -0.1,-0.5 -0.2,-1 -0.4,-1.5 -1.8,-6.1 -7.5,-10.6 -14.2,-10.6 -6.7,0 -12.3,4.4 -14.2,10.5 -0.1,0.3 -0.2,0.6 -0.2,0.9 0,0.2 -0.1,0.4 -0.1,0.6 -0.1,0.5 -0.2,1 -0.2,1.5 0,0.3 0,0.6 -0.1,0.9 0,0.2 0,0.3 0,0.5 0,8.2 6.7,14.8 14.8,14.8 8.2,0 14.8,-6.7 14.8,-14.8 0,-0.4 0,-0.8 -0.1,-1.2 0.1,-0.6 0,-1.1 -0.1,-1.6 z"
           id="path897" />
        <path
           style="fill:none"
           inkscape:connector-curvature="0"
           d="m 1035.7,535.4 c -2.1,-0.3 -9.2,-0.5 -16,9.7 -5.5,8.2 -3.1,14.3 0,21.3 l 9.8,0.6 c -0.2,-0.8 0.2,-1.6 1,-1.8 0.8,-0.2 1.6,0.2 1.9,1 0,0.1 0.2,0.5 0.5,1.1 l 14.8,0.9 c 0.6,-0.3 1.3,-0.6 2,-1 0.7,-0.4 1.6,-0.1 2,0.6 0.1,0.2 0.2,0.4 0.2,0.6 l 8.7,0.5 c 0.3,-2.6 0.6,-5.4 0.9,-8.7 -2.6,-0.7 -4.8,-1.9 -6.5,-3.4 -3.4,-2.9 -5.3,-3.8 -5.3,-3.9 -0.2,-0.1 -0.4,-0.2 -0.5,-0.4 -0.2,-0.2 -0.4,-0.5 -0.5,-0.8 -2.2,0.7 -7,1.1 -9.1,-0.7 -1.9,-1.6 -3.3,-4.5 -4,-8.2 -0.7,-1.9 -0.4,-4.7 0.1,-7.4 z"
           id="path899" />
        <path
           style="fill:#010101"
           inkscape:connector-curvature="0"
           d="m 1092.9,521.3 c -0.3,-0.3 -0.4,-0.5 -0.5,-0.5 0,-0.1 0.1,-0.3 0.4,-0.7 0.4,-0.6 0.5,-1.3 0.2,-2 -0.6,-1.2 -2.3,-1.6 -3.7,-1.6 -3.7,-0.1 -9.1,1.5 -12.1,6.7 -2.7,4.7 -0.9,9.2 0.5,12.8 0.5,1.3 1,2.5 1.3,3.7 0.6,2.5 0.3,3.8 -0.1,4.1 -0.4,0.3 -1.5,0.3 -3.4,-0.6 -0.6,-0.3 -1,-1.7 -1.4,-3.1 -0.9,-3.3 -2.3,-8 -8.8,-9.1 0.4,-1.7 0.3,-3.2 -0.4,-4.5 -0.9,-1.9 -2.8,-3.2 -5.8,-4.1 -6.5,-1.9 -12,-1.6 -16.2,0.8 -3.6,2.1 -5.5,5.3 -6.1,7.7 -0.1,0.5 -0.3,1.1 -0.4,1.6 -2.7,-0.4 -11.2,-0.7 -19.1,11 -6,8.9 -3.8,16 -0.9,22.7 l -7.8,-0.5 c -0.2,0 -0.4,0 -0.6,0 l -4.5,-15.6 c -0.1,-0.4 -0.3,-0.7 -0.7,-0.9 l -9.7,-5.7 c -0.7,-0.4 -1.6,-0.2 -2,0.5 -0.4,0.7 -0.2,1.6 0.5,2 l 9.2,5.4 4.7,16.4 c -0.1,0.3 -0.1,0.6 -0.1,0.9 v 25.2 h -9.1 l 4.6,-7 h 2.3 c 0.8,0 1.5,-0.7 1.5,-1.5 0,-0.8 -0.7,-1.5 -1.5,-1.5 h -6.4 c -0.8,0 -1.5,0.7 -1.5,1.5 0,0.8 0.7,1.5 1.5,1.5 h 0.5 l -4.6,7 h -5.2 l -17.8,-35.6 h 3.6 c 1,0 1.8,-0.8 1.8,-1.8 0,-1 -0.8,-1.8 -1.8,-1.8 h -10.7 c -1,0 -1.8,0.8 -1.8,1.8 0,1 0.8,1.8 1.8,1.8 h 3.8 l 17.8,35.6 h -8 c -0.8,-10.4 -9.5,-18.7 -20.1,-18.7 -11.1,0 -20.2,9 -20.2,20.2 0,11.1 9,20.2 20.2,20.2 10.6,0 19.3,-8.3 20.1,-18.7 h 14.5 l -4.6,7 h -2.4 c -0.8,0 -1.5,0.7 -1.5,1.5 0,0.8 0.7,1.5 1.5,1.5 h 6.4 c 0.8,0 1.5,-0.7 1.5,-1.5 0,-0.8 -0.7,-1.5 -1.5,-1.5 h -0.4 l 4.6,-7 h 28.1 c 0,0.2 0,0.3 0,0.5 0,10.2 8.3,18.4 18.4,18.4 10.2,0 18.4,-8.3 18.4,-18.4 0,-0.4 0,-0.8 0,-1.2 l 10.3,0 h 0 c 1.7,0 3,-1.3 3,-3 v -20.6 c 0,-1.6 -1.2,-2.9 -2.8,-3 l -6.8,-0.4 c 0.3,-2.5 0.6,-5.2 0.9,-8.4 0.8,0.1 1.5,0.2 2.3,0.2 2.4,0 4.8,-0.5 7.2,-1.6 0,0 0,0 0.1,0 1,0.2 2.1,0.3 3.1,0.3 7.2,0 12.4,-4.9 14.3,-7 0.5,-0.5 0.5,-1.3 0.1,-1.8 -0.4,-0.6 -1.1,-0.8 -1.8,-0.5 -0.8,0.3 -1.6,0.6 -2.4,0.8 1.1,-1.6 1.7,-3.1 2,-4.3 0.6,-2.7 0.2,-5.6 -1.1,-8 -0.2,-0.3 -0.4,-0.7 -0.6,-1.1 -1.7,-3 -4.2,-7.5 -2,-10.8 1.2,-1.9 2,-2.3 2.3,-2.4 0.3,-0.1 0.6,0.1 1.3,0.4 0.4,0.2 0.8,0.4 1.3,0.6 1.9,0.6 3.2,0 3.7,-0.9 0.4,-1.2 0.2,-2.5 -0.7,-3.4 z M 956,598.1 c 1,0 1.8,-0.5 2.3,-1.2 h 14.2 c -0.8,8.5 -7.9,15.1 -16.5,15.1 -9.1,0 -16.6,-7.4 -16.6,-16.6 0,-9.1 7.4,-16.6 16.6,-16.6 8.6,0 15.8,6.6 16.5,15.1 h -14.2 c -0.5,-0.7 -1.3,-1.2 -2.3,-1.2 -1.5,0 -2.7,1.2 -2.7,2.7 0,1.5 1.2,2.7 2.7,2.7 z m 63.6,-53 c 6.9,-10.2 13.9,-10 16,-9.7 -0.5,2.7 -0.7,5.4 -0.3,7.6 0.7,3.7 2.1,6.6 4,8.2 2,1.8 6.9,1.4 9.1,0.7 0.1,0.3 0.3,0.5 0.5,0.8 0.1,0.2 0.3,0.3 0.5,0.4 0,0 2,0.9 5.3,3.9 1.7,1.4 3.9,2.7 6.5,3.4 -0.3,3.3 -0.6,6.1 -0.9,8.7 l -8.7,-0.5 c 0,-0.2 -0.1,-0.4 -0.2,-0.6 -0.4,-0.7 -1.3,-1 -2,-0.6 -0.7,0.4 -1.3,0.7 -2,1 l -14.8,-0.9 c -0.4,-0.6 -0.5,-1 -0.5,-1.1 -0.2,-0.8 -1.1,-1.2 -1.9,-1 -0.8,0.2 -1.2,1.1 -1,1.8 l -9.8,-0.6 c -2.9,-7.1 -5.3,-13.2 0.2,-21.5 z m 21.1,67.1 c -8.2,0 -14.8,-6.7 -14.8,-14.8 0,-0.2 0,-0.3 0,-0.5 0,-0.3 0,-0.6 0.1,-0.9 0,-0.5 0.1,-1 0.2,-1.5 0,-0.2 0.1,-0.4 0.1,-0.6 0.1,-0.3 0.1,-0.6 0.2,-0.9 1.9,-6.1 7.5,-10.5 14.2,-10.5 6.7,0 12.4,4.5 14.2,10.6 0.1,0.5 0.3,1 0.4,1.5 0.1,0.5 0.2,1 0.2,1.5 0,0.4 0.1,0.8 0.1,1.2 0,8.3 -6.7,14.9 -14.9,14.9 z m 28.7,-39.6 v 20.6 c 0,0 0,0 0,0 l -9.1,0 -1.6,0 c -1.9,-8.1 -9.2,-14.2 -17.9,-14.2 -8.7,0 -15.9,6 -17.9,14.1 l -14.6,-0.1 0,-21.6 0,-2.7 0.5,0 8.9,0.6 3.3,0.2 10.3,0.7 16.9,1.1 11.9,0.8 2.4,0.2 6.9,0.3 z m 7,-16 c -1.4,0 -2.7,-0.2 -4.1,-0.7 -0.9,-0.3 -1.7,-0.7 -2.6,-1.1 -0.6,-0.3 -1.3,-0.7 -1.9,-1.2 0.1,-0.4 0.5,-0.9 0.8,-1.2 1.7,1.2 4.9,2.9 9.9,2.9 1.2,0 2.4,-0.1 3.7,-0.3 -0.4,0.3 -0.9,0.5 -1.3,0.7 -1.4,0.6 -2.9,0.9 -4.5,0.9 z m 13,-35.4 c 0,0.3 0.1,0.5 0.2,0.7 -2,-1 -4.3,-1.5 -7.3,3.1 -3.1,4.8 0,10.5 1.9,13.9 0.2,0.4 0.4,0.7 0.6,1.1 2.9,5.5 -0.8,10.1 -3.8,12.2 -0.9,0.1 -1.8,0.2 -2.6,0.2 -5.2,0 -7.9,-2 -8.8,-2.8 -0.4,-0.4 -1,-0.5 -1.6,-0.3 -1.7,0.7 -3.8,2.9 -3.4,5.4 0.1,0.4 0.3,0.7 0.6,1 0,0 0.1,0.1 0.1,0.1 0,0.2 0.1,0.3 0.2,0.4 0.3,0.7 0.9,1.2 1.9,1.7 -1.4,0.2 -5.4,0.2 -10.8,-3.2 -3.2,-2.1 -4.9,-3.7 -5.7,-4.1 -0.4,-0.9 0,-3.4 0.7,-5.3 0.3,-0.8 -0.1,-1.6 -0.9,-1.9 -0.8,-0.3 -1.6,0.1 -1.9,0.9 -0.2,0.6 -0.9,2.6 -1,4.7 -0.1,0 -0.2,0.1 -0.2,0.1 -0.3,0.2 -1.6,0.5 -3.2,0.5 -2,0 -2.9,-0.3 -3.2,-0.5 -1.4,-1.2 -2.4,-3.5 -3,-6.5 -0.6,-2.9 0.4,-7.6 1.3,-10.9 0.4,-1.7 1.9,-4.2 4.7,-5.8 3.5,-2 8.2,-2.2 13.9,-0.6 2.1,0.6 3.4,1.5 4,2.5 0.5,1 0.4,2.2 -0.3,3.9 -0.2,0.4 -0.1,1 0.1,1.4 0.3,0.4 0.7,0.7 1.2,0.7 6.1,0.3 7.1,3.8 8,7.1 0.6,2.1 1.2,4.1 3.1,5 2.9,1.3 5.1,1.4 6.5,0.2 1.5,-1.3 1.9,-3.6 1.1,-7.1 -0.3,-1.4 -0.9,-2.8 -1.4,-4.1 -1.4,-3.5 -2.7,-6.8 -0.7,-10.2 1.9,-3.2 4.6,-4.5 6.6,-5 1.4,-0.4 2.6,-0.4 3.3,-0.3 -0.1,0.6 -0.3,1.2 -0.2,1.8 z"
           id="path901" />
      </g>
    </g>
  </g>
</svg>
